<svg id="圖層_1" data-name="圖層 1" xmlns="http://www.w3.org/2000/svg" viewBox="0 0 168 104"><defs><style>.cls-1{fill:#fff;opacity:0.87;}.cls-2{fill:#251e1c;}.cls-3{fill:#403d3c;}</style></defs><rect class="cls-1" width="168" height="104" rx="25.23"/><path class="cls-2" d="M59.21,52V26.51A7.5,7.5,0,0,1,70.46,20L92.54,32.76,114.61,45.5a7.51,7.51,0,0,1,0,13L92.54,71.24,70.46,84a7.5,7.5,0,0,1-11.25-6.5Z"/><path class="cls-3" d="M70.46,33.43,92.54,46.18l21.7,12.53.37-.21a7.51,7.51,0,0,0,0-13L92.54,32.76,70.46,20a7.5,7.5,0,0,0-11.25,6.5V39.93A7.5,7.5,0,0,1,70.46,33.43Z"/></svg>