<svg id="圖層_1" data-name="圖層 1" xmlns="http://www.w3.org/2000/svg" viewBox="0 0 197.66 197.66"><defs><style>.cls-1{fill:#fff;}</style></defs><path class="cls-1" d="M196.81,98h-.66c-8.56,0-16.37,0-23.51,0-33.2-.21-51.43-1.9-61.24-11.71S99.9,58.22,99.69,25c0-7.14,0-14.95,0-23.51V.85A.86.86,0,0,0,98,.85v.66c0,8.56,0,16.37,0,23.51-.21,33.2-1.9,51.43-11.71,61.24S58.22,97.76,25,98c-7.14,0-14.95,0-23.51,0H.85a.86.86,0,0,0,0,1.72h.66c8.56,0,16.37,0,23.51,0,33.2.21,51.43,1.9,61.24,11.71s11.5,28,11.71,61.24c0,7.14,0,15,0,23.51v.66a.86.86,0,0,0,1.72,0v-.66c0-8.56,0-16.37,0-23.51.21-33.2,1.9-51.43,11.71-61.24s28-11.5,61.24-11.71c7.13,0,15,0,23.51,0h.66a.86.86,0,0,0,0-1.72Z"/></svg>