<svg id="圖層_1" data-name="圖層 1" xmlns="http://www.w3.org/2000/svg" viewBox="0 0 128.15 227.05"><defs><style>.cls-1,.cls-3,.cls-4{fill:#fff;}.cls-2{fill:#251e1c;}.cls-3,.cls-4{stroke:#251e1c;stroke-linecap:round;}.cls-3{stroke-linejoin:bevel;stroke-width:2.74px;}.cls-4{stroke-linejoin:round;stroke-width:2.74px;}</style></defs><path class="cls-1" d="M13.12,229.55l-2.5-2.5V57.69a53.46,53.46,0,0,1,106.91,0V227.05l-2.5,2.5Z"/><path class="cls-2" d="M64.08,6.74a51,51,0,0,1,51,50.95V227.05H13.12V57.69a51,51,0,0,1,51-50.95h0m0-5a56,56,0,0,0-56,56V227.05l5,5H115l5-5V57.69A56,56,0,0,0,64.08,1.74Z"/><path class="cls-3" d="M72.17,61.83a9.33,9.33,0,1,1-18.65,0"/><rect class="cls-4" x="40.42" y="34.19" width="21.15" height="30.88" rx="10.57"/><path class="cls-2" d="M47.15,55.7a9.22,9.22,0,0,1-6.73-3.13v-7.8A10.58,10.58,0,0,1,51,34.19h0a10.58,10.58,0,0,1,4.25.9,14.77,14.77,0,0,1,2.18,7.84C57.43,50,52.83,55.7,47.15,55.7Z"/><rect class="cls-4" x="66.08" y="34.19" width="21.15" height="30.88" rx="10.57"/><path class="cls-2" d="M72.81,55.7a9.19,9.19,0,0,1-6.73-3.13v-7.8A10.58,10.58,0,0,1,76.65,34.19h0a10.62,10.62,0,0,1,4.26.9,14.85,14.85,0,0,1,2.17,7.84C83.08,50,78.48,55.7,72.81,55.7Z"/><path class="cls-2" d="M54.16,148.82c1.49,4.16,4.16,7.51,8.39,9.15a14.13,14.13,0,0,0-2.48,3.17,16.4,16.4,0,0,1-8.35-9,15.88,15.88,0,0,1-8.28,9,10.21,10.21,0,0,0-2.53-2.85A13.32,13.32,0,0,0,49,148.82H41.37v-3.48h8.17c.16-2,.13-4,.16-6h3.68c0,1.91-.05,3.93-.23,6H62v3.48Z"/><path class="cls-2" d="M78.72,145.11v2h7v3.17H68.26v-3.17h6.92v-2H66.72V142h8.46v-2.6h3.54V142h8.51v3.12Zm-9.82,6.67H85.25v9.43H81.57v-.69H72.38v.69H68.9Zm3.48,3v2.71h9.19v-2.71Z"/><path class="cls-2" d="M54.16,176.63c1.49,4.17,4.16,7.52,8.39,9.16A14.13,14.13,0,0,0,60.07,189a16.4,16.4,0,0,1-8.35-9,15.88,15.88,0,0,1-8.28,9,10.21,10.21,0,0,0-2.53-2.85A13.32,13.32,0,0,0,49,176.63H41.37v-3.47h8.17c.16-2,.13-4,.16-5.95h3.68c0,1.91-.05,3.93-.23,5.95H62v3.47Z"/><path class="cls-2" d="M73.85,174h3.82v3.08H73.85v.9c1.17.85,3.22,2.55,3.77,3l-1.89,2.9c-.48-.65-1.17-1.45-1.88-2.23V189H70.47V181.9a19.14,19.14,0,0,1-3,4.44A19.75,19.75,0,0,0,65.85,183a21.31,21.31,0,0,0,4-6H66.38V174h4.09v-2.23c-1.18.23-2.35.41-3.45.58a10.74,10.74,0,0,0-1-2.6,39.51,39.51,0,0,0,9.13-2.46l2.35,2.55A26.46,26.46,0,0,1,73.85,171Zm8.21,9.08H78.72V170h3.34ZM87,167.64v17.43c0,1.87-.35,2.76-1.4,3.32a12.16,12.16,0,0,1-4.86.64,12.75,12.75,0,0,0-1.15-3.47c1.45.07,3,.07,3.48.07s.62-.14.62-.58V167.64Z"/></svg>