<svg id="圖層_1" data-name="圖層 1" xmlns="http://www.w3.org/2000/svg" xmlns:xlink="http://www.w3.org/1999/xlink" viewBox="0 0 164 228.79"><defs><style>.cls-1,.cls-10,.cls-11,.cls-12,.cls-19,.cls-20,.cls-3,.cls-4,.cls-5,.cls-6,.cls-7,.cls-8,.cls-9{fill:none;}.cls-2{fill:#251e1c;}.cls-10,.cls-11,.cls-12,.cls-15,.cls-16,.cls-18,.cls-19,.cls-20,.cls-21,.cls-3,.cls-4,.cls-5,.cls-6,.cls-7,.cls-8,.cls-9{stroke:#251e1c;stroke-linecap:round;}.cls-3{stroke-width:3.5px;}.cls-10,.cls-11,.cls-12,.cls-3,.cls-4,.cls-5,.cls-6,.cls-7,.cls-8,.cls-9{stroke-dasharray:0 6.5;}.cls-4{stroke-width:3.25px;}.cls-15,.cls-16,.cls-5{stroke-width:3px;}.cls-6{stroke-width:2.75px;}.cls-7{stroke-width:2.5px;}.cls-8{stroke-width:2.25px;}.cls-20,.cls-9{stroke-width:2px;}.cls-10{stroke-width:1.75px;}.cls-11{stroke-width:1.5px;}.cls-12{stroke-width:1.25px;}.cls-13,.cls-18,.cls-21{fill:#fff;}.cls-14{fill:url(#_10_dpi_40_);}.cls-15,.cls-16,.cls-18,.cls-19,.cls-20,.cls-21{stroke-linejoin:round;}.cls-15{fill:url(#_10_dpi_40_3);}.cls-16{fill:url(#_10_dpi_40_5);}.cls-17{fill:url(#起伏的細點);}.cls-18,.cls-19{stroke-width:2.74px;}.cls-21{stroke-width:2.74px;}</style><pattern id="_10_dpi_40_" data-name="10 dpi 40%" width="28.8" height="28.8" patternTransform="translate(-28.75 -8.63)" patternUnits="userSpaceOnUse" viewBox="0 0 28.8 28.8"><rect class="cls-1" width="28.8" height="28.8"/><path class="cls-2" d="M28.8,31.68a2.88,2.88,0,1,0-2.88-2.88A2.88,2.88,0,0,0,28.8,31.68Z"/><path class="cls-2" d="M14.4,31.68a2.88,2.88,0,1,0-2.88-2.88A2.88,2.88,0,0,0,14.4,31.68Z"/><path class="cls-2" d="M28.8,17.28a2.88,2.88,0,1,0-2.88-2.88A2.88,2.88,0,0,0,28.8,17.28Z"/><path class="cls-2" d="M14.4,17.28a2.88,2.88,0,1,0-2.88-2.88A2.88,2.88,0,0,0,14.4,17.28Z"/><path class="cls-2" d="M7.2,24.48A2.88,2.88,0,1,0,4.32,21.6,2.88,2.88,0,0,0,7.2,24.48Z"/><path class="cls-2" d="M21.6,24.48a2.88,2.88,0,1,0-2.88-2.88A2.88,2.88,0,0,0,21.6,24.48Z"/><path class="cls-2" d="M7.2,10.08A2.88,2.88,0,1,0,4.32,7.2,2.88,2.88,0,0,0,7.2,10.08Z"/><path class="cls-2" d="M21.6,10.08A2.88,2.88,0,1,0,18.72,7.2,2.88,2.88,0,0,0,21.6,10.08Z"/><path class="cls-2" d="M0,31.68A2.88,2.88,0,0,0,2.88,28.8,2.88,2.88,0,0,0,0,25.92a2.88,2.88,0,0,0,0,5.76Z"/><path class="cls-2" d="M0,17.28A2.88,2.88,0,0,0,2.88,14.4,2.88,2.88,0,0,0,0,11.52a2.88,2.88,0,0,0,0,5.76Z"/><path class="cls-2" d="M28.8,2.88A2.88,2.88,0,0,0,31.68,0a2.88,2.88,0,0,0-5.76,0A2.88,2.88,0,0,0,28.8,2.88Z"/><path class="cls-2" d="M14.4,2.88A2.88,2.88,0,0,0,17.28,0a2.88,2.88,0,0,0-5.76,0A2.88,2.88,0,0,0,14.4,2.88Z"/><path class="cls-2" d="M0,2.88A2.88,2.88,0,0,0,2.88,0,2.88,2.88,0,0,0,0-2.88,2.88,2.88,0,0,0-2.88,0,2.88,2.88,0,0,0,0,2.88Z"/></pattern><pattern id="_10_dpi_40_3" data-name="10 dpi 40%" width="28.8" height="28.8" patternTransform="translate(-28.29 -3.54)" patternUnits="userSpaceOnUse" viewBox="0 0 28.8 28.8"><rect class="cls-1" width="28.8" height="28.8"/><path class="cls-2" d="M28.8,31.68a2.88,2.88,0,1,0-2.88-2.88A2.88,2.88,0,0,0,28.8,31.68Z"/><path class="cls-2" d="M14.4,31.68a2.88,2.88,0,1,0-2.88-2.88A2.88,2.88,0,0,0,14.4,31.68Z"/><path class="cls-2" d="M28.8,17.28a2.88,2.88,0,1,0-2.88-2.88A2.88,2.88,0,0,0,28.8,17.28Z"/><path class="cls-2" d="M14.4,17.28a2.88,2.88,0,1,0-2.88-2.88A2.88,2.88,0,0,0,14.4,17.28Z"/><path class="cls-2" d="M7.2,24.48A2.88,2.88,0,1,0,4.32,21.6,2.88,2.88,0,0,0,7.2,24.48Z"/><path class="cls-2" d="M21.6,24.48a2.88,2.88,0,1,0-2.88-2.88A2.88,2.88,0,0,0,21.6,24.48Z"/><path class="cls-2" d="M7.2,10.08A2.88,2.88,0,1,0,4.32,7.2,2.88,2.88,0,0,0,7.2,10.08Z"/><path class="cls-2" d="M21.6,10.08A2.88,2.88,0,1,0,18.72,7.2,2.88,2.88,0,0,0,21.6,10.08Z"/><path class="cls-2" d="M0,31.68A2.88,2.88,0,0,0,2.88,28.8,2.88,2.88,0,0,0,0,25.92a2.88,2.88,0,0,0,0,5.76Z"/><path class="cls-2" d="M0,17.28A2.88,2.88,0,0,0,2.88,14.4,2.88,2.88,0,0,0,0,11.52a2.88,2.88,0,0,0,0,5.76Z"/><path class="cls-2" d="M28.8,2.88A2.88,2.88,0,0,0,31.68,0a2.88,2.88,0,0,0-5.76,0A2.88,2.88,0,0,0,28.8,2.88Z"/><path class="cls-2" d="M14.4,2.88A2.88,2.88,0,0,0,17.28,0a2.88,2.88,0,0,0-5.76,0A2.88,2.88,0,0,0,14.4,2.88Z"/><path class="cls-2" d="M0,2.88A2.88,2.88,0,0,0,2.88,0,2.88,2.88,0,0,0,0-2.88,2.88,2.88,0,0,0-2.88,0,2.88,2.88,0,0,0,0,2.88Z"/></pattern><pattern id="_10_dpi_40_5" data-name="10 dpi 40%" width="28.8" height="28.8" patternTransform="translate(-28.29 1.94)" patternUnits="userSpaceOnUse" viewBox="0 0 28.8 28.8"><rect class="cls-1" width="28.8" height="28.8"/><path class="cls-2" d="M28.8,31.68a2.88,2.88,0,1,0-2.88-2.88A2.88,2.88,0,0,0,28.8,31.68Z"/><path class="cls-2" d="M14.4,31.68a2.88,2.88,0,1,0-2.88-2.88A2.88,2.88,0,0,0,14.4,31.68Z"/><path class="cls-2" d="M28.8,17.28a2.88,2.88,0,1,0-2.88-2.88A2.88,2.88,0,0,0,28.8,17.28Z"/><path class="cls-2" d="M14.4,17.28a2.88,2.88,0,1,0-2.88-2.88A2.88,2.88,0,0,0,14.4,17.28Z"/><path class="cls-2" d="M7.2,24.48A2.88,2.88,0,1,0,4.32,21.6,2.88,2.88,0,0,0,7.2,24.48Z"/><path class="cls-2" d="M21.6,24.48a2.88,2.88,0,1,0-2.88-2.88A2.88,2.88,0,0,0,21.6,24.48Z"/><path class="cls-2" d="M7.2,10.08A2.88,2.88,0,1,0,4.32,7.2,2.88,2.88,0,0,0,7.2,10.08Z"/><path class="cls-2" d="M21.6,10.08A2.88,2.88,0,1,0,18.72,7.2,2.88,2.88,0,0,0,21.6,10.08Z"/><path class="cls-2" d="M0,31.68A2.88,2.88,0,0,0,2.88,28.8,2.88,2.88,0,0,0,0,25.92a2.88,2.88,0,0,0,0,5.76Z"/><path class="cls-2" d="M0,17.28A2.88,2.88,0,0,0,2.88,14.4,2.88,2.88,0,0,0,0,11.52a2.88,2.88,0,0,0,0,5.76Z"/><path class="cls-2" d="M28.8,2.88A2.88,2.88,0,0,0,31.68,0a2.88,2.88,0,0,0-5.76,0A2.88,2.88,0,0,0,28.8,2.88Z"/><path class="cls-2" d="M14.4,2.88A2.88,2.88,0,0,0,17.28,0a2.88,2.88,0,0,0-5.76,0A2.88,2.88,0,0,0,14.4,2.88Z"/><path class="cls-2" d="M0,2.88A2.88,2.88,0,0,0,2.88,0,2.88,2.88,0,0,0,0-2.88,2.88,2.88,0,0,0-2.88,0,2.88,2.88,0,0,0,0,2.88Z"/></pattern><pattern id="起伏的細點" data-name="起伏的細點" width="83" height="65" patternTransform="translate(108.91 -1.95)" patternUnits="userSpaceOnUse" viewBox="0 0 83 65"><rect class="cls-1" width="83" height="65"/><line class="cls-3" x1="83" y1="65" x2="83" y2="130.5"/><line class="cls-3" y1="65" y2="130.5"/><line class="cls-4" x1="4.61" y1="61.75" x2="4.61" y2="130.5"/><line class="cls-5" x1="9.22" y1="65" x2="9.22" y2="130.5"/><line class="cls-6" x1="13.83" y1="61.75" x2="13.83" y2="130.5"/><line class="cls-7" x1="18.45" y1="65" x2="18.45" y2="130.5"/><line class="cls-8" x1="23.06" y1="61.75" x2="23.06" y2="130.5"/><line class="cls-9" x1="27.67" y1="65" x2="27.67" y2="130.5"/><line class="cls-10" x1="32.28" y1="61.75" x2="32.28" y2="130.5"/><line class="cls-11" x1="36.89" y1="65" x2="36.89" y2="130.5"/><line class="cls-12" x1="41.5" y1="61.75" x2="41.5" y2="130.5"/><line class="cls-3" x1="83" y1="65" x2="83" y2="130.5"/><line class="cls-4" x1="78.39" y1="61.75" x2="78.39" y2="130.5"/><line class="cls-5" x1="73.78" y1="65" x2="73.78" y2="130.5"/><line class="cls-6" x1="69.17" y1="61.75" x2="69.17" y2="130.5"/><line class="cls-7" x1="64.55" y1="65" x2="64.55" y2="130.5"/><line class="cls-8" x1="59.94" y1="61.75" x2="59.94" y2="130.5"/><line class="cls-9" x1="55.33" y1="65" x2="55.33" y2="130.5"/><line class="cls-10" x1="50.72" y1="61.75" x2="50.72" y2="130.5"/><line class="cls-11" x1="46.11" y1="65" x2="46.11" y2="130.5"/><line class="cls-3" y1="65" y2="130.5"/><line class="cls-3" x1="83" x2="83" y2="65.5"/><line class="cls-3" y2="65.5"/><line class="cls-4" x1="4.61" y1="-3.25" x2="4.61" y2="65.5"/><line class="cls-5" x1="9.22" x2="9.22" y2="65.5"/><line class="cls-6" x1="13.83" y1="-3.25" x2="13.83" y2="65.5"/><line class="cls-7" x1="18.45" x2="18.45" y2="65.5"/><line class="cls-8" x1="23.06" y1="-3.25" x2="23.06" y2="65.5"/><line class="cls-9" x1="27.67" x2="27.67" y2="65.5"/><line class="cls-10" x1="32.28" y1="-3.25" x2="32.28" y2="65.5"/><line class="cls-11" x1="36.89" x2="36.89" y2="65.5"/><line class="cls-12" x1="41.5" y1="-3.25" x2="41.5" y2="65.5"/><line class="cls-3" x1="83" x2="83" y2="65.5"/><line class="cls-4" x1="78.39" y1="-3.25" x2="78.39" y2="65.5"/><line class="cls-5" x1="73.78" x2="73.78" y2="65.5"/><line class="cls-6" x1="69.17" y1="-3.25" x2="69.17" y2="65.5"/><line class="cls-7" x1="64.55" x2="64.55" y2="65.5"/><line class="cls-8" x1="59.94" y1="-3.25" x2="59.94" y2="65.5"/><line class="cls-9" x1="55.33" x2="55.33" y2="65.5"/><line class="cls-10" x1="50.72" y1="-3.25" x2="50.72" y2="65.5"/><line class="cls-11" x1="46.11" x2="46.11" y2="65.5"/><line class="cls-3" y2="65.5"/><line class="cls-3" x1="83" y1="-65" x2="83" y2="0.5"/><line class="cls-3" y1="-65" y2="0.5"/><line class="cls-4" x1="4.61" y1="-68.25" x2="4.61" y2="0.5"/><line class="cls-5" x1="9.22" y1="-65" x2="9.22" y2="0.5"/><line class="cls-6" x1="13.83" y1="-68.25" x2="13.83" y2="0.5"/><line class="cls-7" x1="18.45" y1="-65" x2="18.45" y2="0.5"/><line class="cls-8" x1="23.06" y1="-68.25" x2="23.06" y2="0.5"/><line class="cls-9" x1="27.67" y1="-65" x2="27.67" y2="0.5"/><line class="cls-10" x1="32.28" y1="-68.25" x2="32.28" y2="0.5"/><line class="cls-11" x1="36.89" y1="-65" x2="36.89" y2="0.5"/><line class="cls-12" x1="41.5" y1="-68.25" x2="41.5" y2="0.5"/><line class="cls-3" x1="83" y1="-65" x2="83" y2="0.5"/><line class="cls-4" x1="78.39" y1="-68.25" x2="78.39" y2="0.5"/><line class="cls-5" x1="73.78" y1="-65" x2="73.78" y2="0.5"/><line class="cls-6" x1="69.17" y1="-68.25" x2="69.17" y2="0.5"/><line class="cls-7" x1="64.55" y1="-65" x2="64.55" y2="0.5"/><line class="cls-8" x1="59.94" y1="-68.25" x2="59.94" y2="0.5"/><line class="cls-9" x1="55.33" y1="-65" x2="55.33" y2="0.5"/><line class="cls-10" x1="50.72" y1="-68.25" x2="50.72" y2="0.5"/><line class="cls-11" x1="46.11" y1="-65" x2="46.11" y2="0.5"/><line class="cls-3" y1="-65" y2="0.5"/></pattern></defs><polygon class="cls-13" points="122.23 118.22 121.09 116.65 122.55 107.64 124.11 106.5 141.19 109.25 142.32 110.82 140.87 119.83 139.3 120.97 122.23 118.22"/><path class="cls-2" d="M123.9,107.86,141,110.61l-1.45,9-17.07-2.75,1.45-9m.43-2.71-3.13,2.27-1.46,9,2.27,3.14,17.08,2.75,3.13-2.27,1.45-9-2.26-3.14-17.08-2.75Z"/><path class="cls-13" d="M124.42,102.24l-1.11-1-7.8-31.58.33-1.27,23.74-25,2.34,1.16-5,31.18-1,1.1a2.8,2.8,0,0,0-.8,5l.58,1.35-3.06,19-1.57,1.13Z"/><path class="cls-2" d="M140.57,44.32h0m0,0-5,31.18a4.17,4.17,0,0,0-1.2,7.47l-3.06,19-6.65-1.07-7.8-31.58,23.73-25m0-2.74h0v1.84l-2-1-23.73,25L114.18,70l7.8,31.58,2.22,2,6.65,1.07,3.14-2.27,3.06-19-1.17-2.69a1.44,1.44,0,0,1-.62-1.42,1.45,1.45,0,0,1,1-1.16l1.95-2.19,5-31.18-2.7-1.34V41.58Zm0,5.48Z"/><path class="cls-13" d="M135.74,104.06l-1.13-1.57,3-19,1-1.1a2.8,2.8,0,0,0,.81-5L138.86,76l5-31.19,2.59-.36,14.69,31.17L161.09,77l-17.33,27.54-1.37.62Z"/><path class="cls-2" d="M145.24,45.07l14.69,31.18-17.32,27.53L136,102.71l3-19a4.17,4.17,0,0,0,1.21-7.47l5-31.18m2.47-1.16-5.18.73-5,31.18,1.17,2.7a1.43,1.43,0,0,1-.42,2.57l-1.95,2.2-3.06,19,2.27,3.13,6.65,1.07,2.75-1.24L162.24,77.7l.16-2.62L147.71,43.91Z"/><polygon class="cls-13" points="98.74 135.19 97.24 133.69 97.24 39.3 98.74 37.8 121.64 37.8 123.14 39.3 123.14 133.69 121.64 135.19 98.74 135.19"/><path class="cls-2" d="M121.64,39.3v94.39H98.74V39.3h22.9m0-3H98.74l-3,3v94.39l3,3h22.9l3-3V39.3l-3-3Z"/><path class="cls-13" d="M109.35,53.17A17.14,17.14,0,0,1,92.23,36.05c0-8.22,6.82-28.52,17.12-28.52s17.11,20.3,17.11,28.52A17.14,17.14,0,0,1,109.35,53.17Z"/><path class="cls-2" d="M109.35,9C118,9,125,27.43,125,36.05a15.62,15.62,0,1,1-31.23,0c0-8.62,7-27,15.62-27m0-3C98,6,90.73,27.14,90.73,36.05a18.62,18.62,0,1,0,37.23,0c0-8.91-7.22-30-18.61-30Z"/><path class="cls-13" d="M109.35,53.17A17.14,17.14,0,0,1,92.23,36.05c0-8.22,6.82-28.52,17.12-28.52s17.11,20.3,17.11,28.52A17.14,17.14,0,0,1,109.35,53.17Z"/><path class="cls-2" d="M109.35,9C118,9,125,27.43,125,36.05a15.62,15.62,0,1,1-31.23,0c0-8.62,7-27,15.62-27m0-3C98,6,90.73,27.14,90.73,36.05a18.62,18.62,0,1,0,37.23,0c0-8.91-7.22-30-18.61-30Z"/><path class="cls-14" d="M109.35,26a9.69,9.69,0,0,1-8.3-4.63,9.54,9.54,0,0,1-3.29-1.17,1.5,1.5,0,0,1-.6-2c3.53-6.91,7.86-10.72,12.19-10.72s8.65,3.81,12.18,10.72a1.5,1.5,0,0,1-.59,2,9.68,9.68,0,0,1-3.29,1.17A9.72,9.72,0,0,1,109.35,26Z"/><path class="cls-2" d="M109.35,9c4.21,0,8,4.4,10.84,9.9A8.1,8.1,0,0,1,116.71,20,8.25,8.25,0,0,1,102,20a8.1,8.1,0,0,1-3.48-1.07c2.81-5.5,6.63-9.9,10.85-9.9m0-3c-5,0-9.67,4-13.52,11.54a3,3,0,0,0,1.18,4,11,11,0,0,0,3.13,1.22,11.25,11.25,0,0,0,18.41,0,11,11,0,0,0,3.13-1.22,3,3,0,0,0,1.18-4C119,10,114.34,6,109.35,6Z"/><line class="cls-15" x1="124.96" y1="84.93" x2="103.52" y2="84.93"/><line class="cls-16" x1="124.96" y1="90.4" x2="103.52" y2="90.4"/><path class="cls-13" d="M58.75,167.14A54.2,54.2,0,1,1,109.23,93.3a54.21,54.21,0,0,1-50.48,73.84Z"/><path class="cls-2" d="M58.72,60.12a52.85,52.85,0,1,1-19.13,3.61,52.84,52.84,0,0,1,19.13-3.61m0-2.74h0a55.56,55.56,0,1,0,31,9.47,55.23,55.23,0,0,0-31-9.47Z"/><path class="cls-17" d="M108,93.8A52.8,52.8,0,0,0,65.48,60.56a49.81,49.81,0,0,1-47.25,86.27A52.81,52.81,0,0,0,108,93.8Z"/><rect class="cls-18" x="16.31" y="103.14" width="21.15" height="30.88" rx="10.57" transform="translate(-41.16 17.82) rotate(-21.26)"/><rect class="cls-18" x="36.02" y="95.47" width="21.15" height="30.88" rx="10.57" transform="translate(-37.04 24.44) rotate(-21.26)"/><path class="cls-2" d="M21.1,114.31A9.14,9.14,0,0,0,16,119.67l2.83,7.27a10.56,10.56,0,0,0,13.68,6h0a10.5,10.5,0,0,0,3.65-2.38,14.79,14.79,0,0,0-.82-8.09C32.75,115.91,26.39,112.25,21.1,114.31Z"/><path class="cls-2" d="M40.81,106.64A9.18,9.18,0,0,0,35.68,112l2.83,7.26a10.57,10.57,0,0,0,13.68,6h0a10.39,10.39,0,0,0,3.64-2.39,14.69,14.69,0,0,0-.81-8.09C52.46,108.25,46.1,104.58,40.81,106.64Z"/><path class="cls-19" d="M47.39,130.73a4.69,4.69,0,0,1-8.74,3.39"/><path class="cls-18" d="M104,178.1a8.56,8.56,0,0,1-3.58-1.49c-29.52-21-22.42-51.05-22.1-52.32a8.66,8.66,0,0,1,16.83,4.13,31.47,31.47,0,0,0,.2,12c1.77,8.76,6.86,16.19,15.12,22.07A8.67,8.67,0,0,1,104,178.1Z"/><path class="cls-18" d="M107,166.58h14.87a0,0,0,0,1,0,0V186.4a0,0,0,0,1,0,0H92a0,0,0,0,1,0,0v-4.8A15,15,0,0,1,107,166.58Z" transform="translate(-99.2 166.6) rotate(-56.05)"/><path class="cls-18" d="M88.28,193.15c-8.26-5.88-13.35-13.31-15.12-22.08a33.81,33.81,0,0,1-.66-6.14,52.33,52.33,0,0,1-17.29,1.72c.46,10.95,4.64,27.54,23,40.62a8.67,8.67,0,1,0,10-14.12Z"/><path class="cls-18" d="M84.81,196.24H99.68a0,0,0,0,1,0,0v19.82a0,0,0,0,1,0,0H69.78a0,0,0,0,1,0,0v-4.8A15,15,0,0,1,84.81,196.24Z" transform="translate(-133.59 161.3) rotate(-56.05)"/><line class="cls-18" x1="96.76" y1="183.47" x2="104.3" y2="181.58"/><line class="cls-18" x1="75.51" y1="212.07" x2="83.06" y2="210.18"/><path class="cls-20" d="M119.72,31.29c.34,2.77.66,5.68-.4,8.27a9.68,9.68,0,0,1-3.43,4.15"/><circle class="cls-21" cx="58.18" cy="74.43" r="6.1"/></svg>