<svg id="圖層_1" data-name="圖層 1" xmlns="http://www.w3.org/2000/svg" xmlns:xlink="http://www.w3.org/1999/xlink" viewBox="0 0 583.59 583.59"><defs><style>.cls-1{fill:none;}.cls-2,.cls-4,.cls-5{fill:#251e1c;}.cls-3,.cls-6{stroke:#251e1c;stroke-linecap:round;stroke-linejoin:round;stroke-width:3px;}.cls-3{fill:url(#_10_dpi_10_);}.cls-4{font-size:11.44px;}.cls-4,.cls-5{font-family:Swiss721BT-Black, Swis721 Blk BT;font-weight:800;}.cls-5{font-size:16.53px;}.cls-6{fill:#fff;}</style><pattern id="_10_dpi_10_" data-name="10 dpi 10%" width="28.8" height="28.8" patternTransform="translate(39.67 -35.41)" patternUnits="userSpaceOnUse" viewBox="0 0 28.8 28.8"><rect class="cls-1" width="28.8" height="28.8"/><circle class="cls-2" cx="28.8" cy="28.8" r="0.72"/><path class="cls-2" d="M14.4,29.52a.72.72,0,1,0-.72-.72A.72.72,0,0,0,14.4,29.52Z"/><path class="cls-2" d="M28.8,15.12a.72.72,0,1,0-.72-.72A.72.72,0,0,0,28.8,15.12Z"/><path class="cls-2" d="M14.4,15.12a.72.72,0,1,0-.72-.72A.72.72,0,0,0,14.4,15.12Z"/><path class="cls-2" d="M7.2,22.32a.72.72,0,1,0-.72-.72A.72.72,0,0,0,7.2,22.32Z"/><path class="cls-2" d="M21.6,22.32a.72.72,0,1,0-.72-.72A.72.72,0,0,0,21.6,22.32Z"/><path class="cls-2" d="M7.2,7.92a.72.72,0,1,0-.72-.72A.72.72,0,0,0,7.2,7.92Z"/><path class="cls-2" d="M21.6,7.92a.72.72,0,1,0-.72-.72A.72.72,0,0,0,21.6,7.92Z"/><circle class="cls-2" cy="28.8" r="0.72"/><path class="cls-2" d="M0,15.12a.72.72,0,0,0,0-1.44.72.72,0,0,0-.72.72A.72.72,0,0,0,0,15.12Z"/><path class="cls-2" d="M28.8.72A.72.72,0,0,0,29.52,0a.72.72,0,0,0-.72-.72.72.72,0,0,0-.72.72A.72.72,0,0,0,28.8.72Z"/><path class="cls-2" d="M14.4.72A.72.72,0,0,0,15.12,0a.72.72,0,0,0-.72-.72.72.72,0,0,0-.72.72A.72.72,0,0,0,14.4.72Z"/><path class="cls-2" d="M0,.72A.72.72,0,0,0,.72,0,.72.72,0,0,0,0-.72.72.72,0,0,0-.72,0,.72.72,0,0,0,0,.72Z"/></pattern></defs><circle class="cls-3" cx="291.8" cy="291.8" r="290.25"/><circle class="cls-3" cx="291.8" cy="291.8" r="212.44"/><text class="cls-4" transform="matrix(0.54, -0.84, 0.84, 0.54, 147.95, 204.56)">I</text><text class="cls-4" transform="translate(152.11 198.13) rotate(-54.31)">L</text><text class="cls-4" transform="matrix(0.63, -0.77, 0.77, 0.63, 158.38, 189.58)">L</text><text class="cls-4" transform="matrix(0.68, -0.73, 0.73, 0.68, 165.03, 181.56)">U</text><text class="cls-4" transform="translate(173.77 172.44) rotate(-42.78)">S</text><text class="cls-4" transform="translate(182.26 164.75) rotate(-39.02)">T</text><text class="cls-4" transform="translate(190.78 157.97) rotate(-35.16)">R</text><text class="cls-4" transform="matrix(0.86, -0.52, 0.52, 0.86, 200.68, 151.14)">A</text><text class="cls-4" transform="translate(210.4 145.38) rotate(-27.5)">T</text><text class="cls-4" transform="translate(220.17 140.45) rotate(-24.35)">I</text><text class="cls-4" transform="translate(227.14 137.32) rotate(-20.91)">O</text><text class="cls-4" transform="translate(239.06 132.9) rotate(-16.61)">N</text><text class="cls-4" transform="matrix(0.97, -0.23, 0.23, 0.97, 251.19, 129.46)"> </text><text class="cls-4" transform="translate(258.15 127.9) rotate(-10.84)"> </text><text class="cls-4" transform="translate(265.13 126.63) rotate(-8.42)"> </text><text class="cls-4" transform="matrix(0.99, -0.1, 0.1, 0.99, 272.19, 125.66)"> </text><text class="cls-4" transform="matrix(1, -0.06, 0.06, 1, 279.26, 124.99)"> </text><text class="cls-4" transform="translate(286.37 124.62) rotate(-1.13)"> </text><text class="cls-4" transform="matrix(1, 0.02, -0.02, 1, 293.48, 124.55)"> </text><text class="cls-4" transform="translate(300.57 124.73) rotate(4.55)">D</text><text class="cls-4" transform="translate(312.79 125.83) rotate(8.49)">E</text><text class="cls-4" transform="matrix(0.98, 0.21, -0.21, 0.98, 323.94, 127.61)">S</text><text class="cls-4" transform="matrix(0.96, 0.27, -0.27, 0.96, 335.11, 130.19)">I</text><text class="cls-4" transform="matrix(0.95, 0.32, -0.32, 0.95, 342.5, 132.26)">G</text><text class="cls-4" transform="translate(354.37 136.46) rotate(23.22)">N</text><text class="cls-4" transform="translate(365.91 141.61) rotate(26.58)"> </text><text class="cls-4" transform="matrix(0.87, 0.48, -0.48, 0.87, 372.23, 144.85)"> </text><text class="cls-4" transform="translate(378.41 148.36) rotate(31.43)"> </text><text class="cls-4" transform="translate(384.45 152.13) rotate(33.86)"> </text><text class="cls-4" transform="translate(390.32 156.16) rotate(36.28)"> </text><text class="cls-4" transform="translate(396.04 160.35) rotate(39.88)">M</text><text class="cls-4" transform="matrix(0.71, 0.7, -0.7, 0.71, 406.76, 169.51)">O</text><text class="cls-4" transform="translate(415.72 178.49) rotate(48.39)">T</text><text class="cls-4" transform="translate(422.88 186.75) rotate(51.52)">I</text><text class="cls-4" transform="matrix(0.57, 0.82, -0.82, 0.57, 427.62, 192.76)">O</text><text class="cls-4" transform="matrix(0.51, 0.86, -0.86, 0.51, 434.8, 203.2)">N</text><text class="cls-4" transform="translate(441.13 214.16) rotate(62.52)"> </text><text class="cls-4" transform="translate(444.38 220.45) rotate(65.85)">G</text><text class="cls-4" transform="translate(449.42 232) rotate(70.02)">R</text><text class="cls-4" transform="matrix(0.27, 0.96, -0.96, 0.27, 453.42, 243.36)">A</text><text class="cls-4" transform="translate(456.52 254.64) rotate(78.04)">P</text><text class="cls-4" transform="translate(458.85 266.12) rotate(82.18)">H</text><text class="cls-4" transform="translate(460.39 278.65) rotate(85.65)">I</text><text class="cls-4" transform="matrix(0.02, 1, -1, 0.02, 460.94, 286.29)">C</text><text class="cls-5" transform="translate(514.78 193.4) rotate(66.52)">I</text><text class="cls-5" transform="translate(519.14 203.6) rotate(69.64)">L</text><text class="cls-5" transform="translate(524.34 218.06) rotate(73.25)">L</text><text class="cls-5" transform="translate(528.58 232.49) rotate(77.12)">U</text><text class="cls-5" transform="translate(532.44 250.29) rotate(81.17)">S</text><text class="cls-5" transform="translate(534.82 266.69) rotate(84.94)">T</text><text class="cls-5" transform="matrix(0.02, 1, -1, 0.02, 536.07, 282.39)">R</text><text class="cls-5" transform="translate(536.26 299.76) rotate(92.8)">A</text><text class="cls-5" transform="translate(535.31 316.08) rotate(96.47)">T</text><text class="cls-5" transform="translate(533.34 331.74) rotate(99.61)">I</text><text class="cls-5" transform="matrix(-0.23, 0.97, -0.97, -0.23, 531.45, 342.67)">O</text><text class="cls-5" transform="matrix(-0.3, 0.95, -0.95, -0.3, 527.14, 360.47)">N</text><text class="cls-5" transform="translate(521.45 377.82) rotate(110.71)"> </text><text class="cls-5" transform="translate(517.72 387.39) rotate(113.13)"> </text><text class="cls-5" transform="matrix(-0.43, 0.9, -0.9, -0.43, 513.59, 396.8)"> </text><text class="cls-5" transform="translate(509.06 406.02) rotate(117.99)"> </text><text class="cls-5" transform="translate(504.15 415.05) rotate(120.41)"> </text><text class="cls-5" transform="translate(498.86 423.86) rotate(122.84)"> </text><text class="cls-5" transform="matrix(-0.58, 0.82, -0.82, -0.58, 493.2, 432.45)"> </text><text class="cls-5" transform="matrix(-0.62, 0.78, -0.78, -0.62, 487.26, 440.79)">D</text><text class="cls-5" transform="translate(476.07 454.55) rotate(132.47)">E</text><text class="cls-5" transform="matrix(-0.72, 0.69, -0.69, -0.72, 464.94, 466.47)">S</text><text class="cls-5" transform="matrix(-0.76, 0.65, -0.65, -0.76, 452.83, 477.77)">I</text><text class="cls-5" transform="translate(444.38 484.95) rotate(142.91)">G</text><text class="cls-5" transform="translate(429.75 495.79) rotate(147.2)">N</text><text class="cls-5" transform="translate(414.27 505.46) rotate(150.56)"> </text><text class="cls-5" transform="matrix(-0.89, 0.45, -0.45, -0.89, 405.26, 510.43)"> </text><text class="cls-5" transform="translate(396.06 515) rotate(155.42)"> </text><text class="cls-5" transform="matrix(-0.93, 0.38, -0.38, -0.93, 386.67, 519.18)"> </text><text class="cls-5" transform="translate(377.1 522.97) rotate(160.27)"> </text><text class="cls-5" transform="translate(367.47 526.43) rotate(163.87)">M</text><text class="cls-5" transform="translate(347.84 531.87) rotate(168.39)">O</text><text class="cls-5" transform="translate(329.82 535.36) rotate(172.38)">T</text><text class="cls-5" transform="translate(314.15 537.26) rotate(175.51)">I</text><text class="cls-5" transform="translate(303.1 538.09) rotate(178.94)">O</text><text class="cls-5" transform="translate(284.77 538.25) rotate(-176.8)">N</text><text class="cls-5" transform="translate(266.56 536.98) rotate(-173.48)"> </text><text class="cls-5" transform="matrix(-0.99, -0.17, 0.17, -0.99, 256.4, 535.8)">G</text><text class="cls-5" transform="matrix(-0.97, -0.24, 0.24, -0.97, 238.46, 532.49)">R</text><text class="cls-5" transform="translate(221.65 528.11) rotate(-161.95)">A</text><text class="cls-5" transform="translate(205.62 522.71) rotate(-157.96)">P</text><text class="cls-5" transform="matrix(-0.9, -0.44, 0.44, -0.9, 189.96, 516.21)">H</text><text class="cls-5" transform="matrix(-0.87, -0.49, 0.49, -0.87, 173.71, 507.94)">I</text><text class="cls-5" transform="translate(164.11 502.42) rotate(-146.95)">C</text><circle class="cls-3" cx="291.8" cy="291.8" r="133.34"/><circle class="cls-6" cx="167.24" cy="335.76" r="8.8"/><circle class="cls-6" cx="203.58" cy="99.12" r="8.8"/></svg>