<svg id="圖層_1" data-name="圖層 1" xmlns="http://www.w3.org/2000/svg" xmlns:xlink="http://www.w3.org/1999/xlink" viewBox="0 0 583.5 583.5"><defs><style>.cls-1{fill:none;}.cls-2{fill:#251e1c;}.cls-3{stroke:#251e1c;stroke-linecap:round;stroke-linejoin:round;stroke-width:3px;fill:url(#_10_dpi_10_);}</style><pattern id="_10_dpi_10_" data-name="10 dpi 10%" width="28.8" height="28.8" patternTransform="translate(-27.22 -1.69)" patternUnits="userSpaceOnUse" viewBox="0 0 28.8 28.8"><rect class="cls-1" width="28.8" height="28.8"/><circle class="cls-2" cx="28.8" cy="28.8" r="0.72"/><path class="cls-2" d="M14.4,29.52a.72.72,0,1,0-.72-.72A.72.72,0,0,0,14.4,29.52Z"/><path class="cls-2" d="M28.8,15.12a.72.72,0,1,0-.72-.72A.72.72,0,0,0,28.8,15.12Z"/><path class="cls-2" d="M14.4,15.12a.72.72,0,1,0-.72-.72A.72.72,0,0,0,14.4,15.12Z"/><path class="cls-2" d="M7.2,22.32a.72.72,0,1,0-.72-.72A.72.72,0,0,0,7.2,22.32Z"/><path class="cls-2" d="M21.6,22.32a.72.72,0,1,0-.72-.72A.72.72,0,0,0,21.6,22.32Z"/><path class="cls-2" d="M7.2,7.92a.72.72,0,1,0-.72-.72A.72.72,0,0,0,7.2,7.92Z"/><path class="cls-2" d="M21.6,7.92a.72.72,0,1,0-.72-.72A.72.72,0,0,0,21.6,7.92Z"/><circle class="cls-2" cy="28.8" r="0.72"/><path class="cls-2" d="M0,15.12a.72.72,0,0,0,0-1.44.72.72,0,0,0-.72.72A.72.72,0,0,0,0,15.12Z"/><path class="cls-2" d="M28.8.72A.72.72,0,0,0,29.52,0a.72.72,0,0,0-.72-.72.72.72,0,0,0-.72.72A.72.72,0,0,0,28.8.72Z"/><path class="cls-2" d="M14.4.72A.72.72,0,0,0,15.12,0a.72.72,0,0,0-.72-.72.72.72,0,0,0-.72.72A.72.72,0,0,0,14.4.72Z"/><path class="cls-2" d="M0,.72A.72.72,0,0,0,.72,0,.72.72,0,0,0,0-.72.72.72,0,0,0-.72,0,.72.72,0,0,0,0,.72Z"/></pattern></defs><circle class="cls-3" cx="291.75" cy="291.75" r="290.25"/></svg>