<svg id="圖層_1" data-name="圖層 1" xmlns="http://www.w3.org/2000/svg" viewBox="0 0 70 70"><defs><style>.cls-1{fill:#251e1c;}.cls-2{fill:none;stroke:#fff;stroke-linecap:round;stroke-linejoin:round;stroke-width:4px;}</style></defs><path class="cls-1" d="M37.28,9.74l6.6-8.6A2.87,2.87,0,0,1,49,3l-.39,10.9a2.89,2.89,0,0,0,3.48,3l10.52-2.29a2.92,2.92,0,0,1,2.74,4.82l-7.21,8.09A3,3,0,0,0,59,32.07l9.5,5.1a2.93,2.93,0,0,1-.95,5.47l-10.65,1.5a2.93,2.93,0,0,0-2.28,4l4.05,10.1a2.9,2.9,0,0,1-4.2,3.58L45.32,56A2.87,2.87,0,0,0,41,57.59L37.74,68a2.86,2.86,0,0,1-5.48,0L29,57.59A2.87,2.87,0,0,0,24.68,56l-9.11,5.8a2.9,2.9,0,0,1-4.2-3.58l4.05-10.1a2.93,2.93,0,0,0-2.28-4L2.49,42.64a2.93,2.93,0,0,1-1-5.47l9.5-5.1a3,3,0,0,0,.79-4.55L4.62,19.43a2.92,2.92,0,0,1,2.74-4.82L17.88,16.9a2.89,2.89,0,0,0,3.48-3L21,3a2.87,2.87,0,0,1,5.15-1.9l6.6,8.6A2.86,2.86,0,0,0,37.28,9.74Z"/><polyline class="cls-2" points="38.44 42.44 25.89 32.66 38.44 22.88"/></svg>