<svg id="圖層_1" data-name="圖層 1" xmlns="http://www.w3.org/2000/svg" viewBox="0 0 128.15 227.05"><defs><style>.cls-1,.cls-3,.cls-4{fill:#fff;}.cls-2{fill:#251e1c;}.cls-3,.cls-4{stroke:#251e1c;stroke-linecap:round;}.cls-3{stroke-linejoin:bevel;stroke-width:2.74px;}.cls-4{stroke-linejoin:round;stroke-width:2.74px;}</style></defs><path class="cls-1" d="M13.12,229.55l-2.5-2.5V57.69a53.46,53.46,0,0,1,106.91,0V227.05l-2.5,2.5Z"/><path class="cls-2" d="M64.08,6.74a51,51,0,0,1,51,50.95V227.05H13.12V57.69a51,51,0,0,1,51-50.95h0m0-5a56,56,0,0,0-56,56V227.05l5,5H115l5-5V57.69A56,56,0,0,0,64.08,1.74Z"/><path class="cls-3" d="M72.17,61.83a9.33,9.33,0,1,1-18.65,0"/><rect class="cls-4" x="40.42" y="34.19" width="21.15" height="30.88" rx="10.57"/><path class="cls-2" d="M47.15,55.7a9.22,9.22,0,0,1-6.73-3.13v-7.8A10.58,10.58,0,0,1,51,34.19h0a10.58,10.58,0,0,1,4.25.9,14.77,14.77,0,0,1,2.18,7.84C57.43,50,52.83,55.7,47.15,55.7Z"/><rect class="cls-4" x="66.08" y="34.19" width="21.15" height="30.88" rx="10.57"/><path class="cls-2" d="M72.81,55.7a9.19,9.19,0,0,1-6.73-3.13v-7.8A10.58,10.58,0,0,1,76.65,34.19h0a10.62,10.62,0,0,1,4.26.9,14.85,14.85,0,0,1,2.17,7.84C83.08,50,78.48,55.7,72.81,55.7Z"/><path class="cls-2" d="M61.34,159.71a42.7,42.7,0,0,0-3.48-2.94v1.43c0,1.33-.18,2.09-1,2.55a6.67,6.67,0,0,1-3.17.51,10,10,0,0,0-.85-2.79l-1.59,1.27-1.52-2.09.09,1.56c-2.71.55-5.58,1.08-7.84,1.49l-.64-3c.92-.09,2-.23,3.26-.41v-5.36H41.7v-2.8h2.87v-1.22H43.12v-1c-.34.34-.69.64-1,.94a17.37,17.37,0,0,0-.94-3.33,16.35,16.35,0,0,0,4.23-5.29l2.46.94c-.09.21-.21.44-.32.64,1.28,1.2,2.85,2.65,3.65,3.57l-1.86,2.16a8.61,8.61,0,0,0-.69-.83v2.21H47.24v1.22h2.55v2.8H47.24v5l2.39-.35,0,.46c1.33-.8,3.26-2.12,5.15-3.45v-3.06H52.46a23.94,23.94,0,0,1,2.23,2.58l-2.41,1.63a22.62,22.62,0,0,0-2.3-3l2-1.24H50.11v-2.89h7l.14-.63H50.78a72.2,72.2,0,0,0,1.93-7.68l3.09.33-.35,1.56h3.22l.51-.12,2.27.3c-.3,2-.73,4.28-1.17,6.24h2.78v2.89H60.42l2.37,1.31c-1,1.08-2,2.19-2.88,3,1.31,1,2.6,1.93,3.4,2.64Zm-17.71-7.45a31.82,31.82,0,0,1,.83,3.78l-2.23.64a30.6,30.6,0,0,0-.71-3.86Zm4.48-7.1c-.59-.64-1.28-1.36-2-2a24.2,24.2,0,0,1-1.47,2Zm-.57,10.74a34.92,34.92,0,0,0,.67-3.7l2.07.48c-.39,1.29-.76,2.73-1.08,3.65Zm7.27.94c-.67.55-1.31,1.08-2,1.59.65,0,1.38,0,1.61,0s.35-.07.35-.3Zm3-12.28.16-.83H54.83l-.21.83Zm.06,6v2.85l.1.07a21.81,21.81,0,0,0,2-2.92Z"/><path class="cls-2" d="M86.22,142.65a31.67,31.67,0,0,1-3.08,12.28A12.34,12.34,0,0,0,87,158.38a13,13,0,0,0-2.3,2.76A15,15,0,0,1,81.09,158a15.59,15.59,0,0,1-3.72,3.22,13.18,13.18,0,0,0-1.73-2.3v2.37H72.43v-3.41c-2.53.44-5.13.83-7.2,1.17l-.62-3.33,2-.23V143.69H65.18v-3.08H77v1.61h6.46l.58-.1Zm-16.39,1v1.7h2.6v-1.7Zm0,6.48h2.6v-1.81h-2.6Zm2.6,4.55v-1.58h-2.6v1.93Zm3.21,3.48a12,12,0,0,0,3.48-3.27,33.28,33.28,0,0,1-3-8.78l3.2-.62a28,28,0,0,0,1.7,5.77,28.59,28.59,0,0,0,1.54-5.82H76.31v-1.79h-.67Z"/><path class="cls-2" d="M62.26,178.61a23.52,23.52,0,0,1-3.75,4.92c.48,1.38,1,2.21,1.49,2.21s.65-1.08.76-3.68A8.56,8.56,0,0,0,63.47,184c-.5,4.21-1.51,5.15-3.81,5.15-1.59,0-2.85-1.24-3.82-3.26a30.91,30.91,0,0,1-3.91,2.51,13.13,13.13,0,0,0-2.23-2.72,24.06,24.06,0,0,0,5-3,41,41,0,0,1-1.1-5.91H49.29v2.05l3.31-.53.23,3-3.54.69v3.27c0,1.7-.32,2.6-1.36,3.13a10.08,10.08,0,0,1-4.35.64,12.7,12.7,0,0,0-1.17-3.38c1.2.07,2.53.07,2.94,0s.56-.11.56-.48v-2.57l-3.75.69L41.38,180c1.24-.16,2.83-.37,4.53-.65v-2.55h-4V173.6h4v-2c-1.15.16-2.28.3-3.36.39a12.64,12.64,0,0,0-.94-2.8,54.23,54.23,0,0,0,9.2-1.86l2.25,2.85c-1.17.34-2.46.62-3.77.87v2.6h4c-.16-2.07-.25-4.19-.25-6.21h3.49c0,2.05,0,4.16.19,6.21h6v3.15H57.06c.16,1.1.32,2.16.53,3.13a16.1,16.1,0,0,0,1.72-2.53Zm-2.14-5.29A16,16,0,0,0,57,169.55l2.51-1.7a17.83,17.83,0,0,1,3.29,3.61Z"/><path class="cls-2" d="M72.93,183.07h-4.3v2h-3V169.09h7.31Zm-4.3-10.92V180h1.24v-7.87Zm13.73,13.52c1.13,0,1.36-.48,1.56-2.69a9.25,9.25,0,0,0,3,1.27c-.41,3.31-1.38,4.48-4.21,4.48H78.36c-3.29,0-4.3-.92-4.3-4.69V168.52H85.92V181.6H82.68v-1.29H77.32V184c0,1.47.14,1.63,1.43,1.63Zm-5-14.09v5.72h1.11v-5.72Zm5.36,0H81.44v5.72h1.24Z"/></svg>