<svg id="圖層_1" data-name="圖層 1" xmlns="http://www.w3.org/2000/svg" xmlns:xlink="http://www.w3.org/1999/xlink" viewBox="0 0 311.15 174.3"><defs><style>.cls-1,.cls-10,.cls-11,.cls-2,.cls-3,.cls-4,.cls-5,.cls-6,.cls-7,.cls-8,.cls-9{fill:none;}.cls-10,.cls-11,.cls-12,.cls-15,.cls-2,.cls-3,.cls-4,.cls-5,.cls-6,.cls-7,.cls-8,.cls-9{stroke:#251e1c;}.cls-10,.cls-11,.cls-2,.cls-3,.cls-4,.cls-5,.cls-6,.cls-7,.cls-8,.cls-9{stroke-linecap:round;stroke-dasharray:0 6.5;}.cls-2{stroke-width:3.5px;}.cls-3{stroke-width:3.25px;}.cls-12,.cls-15,.cls-4{stroke-width:3px;}.cls-5{stroke-width:2.75px;}.cls-6{stroke-width:2.5px;}.cls-7{stroke-width:2.25px;}.cls-8{stroke-width:2px;}.cls-9{stroke-width:1.75px;}.cls-10{stroke-width:1.5px;}.cls-11{stroke-width:1.25px;}.cls-12{fill:#fff;}.cls-12,.cls-15{stroke-miterlimit:10;}.cls-13,.cls-15{fill:#251e1c;}.cls-14{fill:url(#起伏的細點);}</style><pattern id="起伏的細點" data-name="起伏的細點" width="83" height="65" patternTransform="translate(144.7 -20.95)" patternUnits="userSpaceOnUse" viewBox="0 0 83 65"><rect class="cls-1" width="83" height="65"/><line class="cls-2" x1="83" y1="65" x2="83" y2="130.5"/><line class="cls-2" y1="65" y2="130.5"/><line class="cls-3" x1="4.61" y1="61.75" x2="4.61" y2="130.5"/><line class="cls-4" x1="9.22" y1="65" x2="9.22" y2="130.5"/><line class="cls-5" x1="13.83" y1="61.75" x2="13.83" y2="130.5"/><line class="cls-6" x1="18.45" y1="65" x2="18.45" y2="130.5"/><line class="cls-7" x1="23.06" y1="61.75" x2="23.06" y2="130.5"/><line class="cls-8" x1="27.67" y1="65" x2="27.67" y2="130.5"/><line class="cls-9" x1="32.28" y1="61.75" x2="32.28" y2="130.5"/><line class="cls-10" x1="36.89" y1="65" x2="36.89" y2="130.5"/><line class="cls-11" x1="41.5" y1="61.75" x2="41.5" y2="130.5"/><line class="cls-2" x1="83" y1="65" x2="83" y2="130.5"/><line class="cls-3" x1="78.39" y1="61.75" x2="78.39" y2="130.5"/><line class="cls-4" x1="73.78" y1="65" x2="73.78" y2="130.5"/><line class="cls-5" x1="69.17" y1="61.75" x2="69.17" y2="130.5"/><line class="cls-6" x1="64.55" y1="65" x2="64.55" y2="130.5"/><line class="cls-7" x1="59.94" y1="61.75" x2="59.94" y2="130.5"/><line class="cls-8" x1="55.33" y1="65" x2="55.33" y2="130.5"/><line class="cls-9" x1="50.72" y1="61.75" x2="50.72" y2="130.5"/><line class="cls-10" x1="46.11" y1="65" x2="46.11" y2="130.5"/><line class="cls-2" y1="65" y2="130.5"/><line class="cls-2" x1="83" x2="83" y2="65.5"/><line class="cls-2" y2="65.5"/><line class="cls-3" x1="4.61" y1="-3.25" x2="4.61" y2="65.5"/><line class="cls-4" x1="9.22" x2="9.22" y2="65.5"/><line class="cls-5" x1="13.83" y1="-3.25" x2="13.83" y2="65.5"/><line class="cls-6" x1="18.45" x2="18.45" y2="65.5"/><line class="cls-7" x1="23.06" y1="-3.25" x2="23.06" y2="65.5"/><line class="cls-8" x1="27.67" x2="27.67" y2="65.5"/><line class="cls-9" x1="32.28" y1="-3.25" x2="32.28" y2="65.5"/><line class="cls-10" x1="36.89" x2="36.89" y2="65.5"/><line class="cls-11" x1="41.5" y1="-3.25" x2="41.5" y2="65.5"/><line class="cls-2" x1="83" x2="83" y2="65.5"/><line class="cls-3" x1="78.39" y1="-3.25" x2="78.39" y2="65.5"/><line class="cls-4" x1="73.78" x2="73.78" y2="65.5"/><line class="cls-5" x1="69.17" y1="-3.25" x2="69.17" y2="65.5"/><line class="cls-6" x1="64.55" x2="64.55" y2="65.5"/><line class="cls-7" x1="59.94" y1="-3.25" x2="59.94" y2="65.5"/><line class="cls-8" x1="55.33" x2="55.33" y2="65.5"/><line class="cls-9" x1="50.72" y1="-3.25" x2="50.72" y2="65.5"/><line class="cls-10" x1="46.11" x2="46.11" y2="65.5"/><line class="cls-2" y2="65.5"/><line class="cls-2" x1="83" y1="-65" x2="83" y2="0.5"/><line class="cls-2" y1="-65" y2="0.5"/><line class="cls-3" x1="4.61" y1="-68.25" x2="4.61" y2="0.5"/><line class="cls-4" x1="9.22" y1="-65" x2="9.22" y2="0.5"/><line class="cls-5" x1="13.83" y1="-68.25" x2="13.83" y2="0.5"/><line class="cls-6" x1="18.45" y1="-65" x2="18.45" y2="0.5"/><line class="cls-7" x1="23.06" y1="-68.25" x2="23.06" y2="0.5"/><line class="cls-8" x1="27.67" y1="-65" x2="27.67" y2="0.5"/><line class="cls-9" x1="32.28" y1="-68.25" x2="32.28" y2="0.5"/><line class="cls-10" x1="36.89" y1="-65" x2="36.89" y2="0.5"/><line class="cls-11" x1="41.5" y1="-68.25" x2="41.5" y2="0.5"/><line class="cls-2" x1="83" y1="-65" x2="83" y2="0.5"/><line class="cls-3" x1="78.39" y1="-68.25" x2="78.39" y2="0.5"/><line class="cls-4" x1="73.78" y1="-65" x2="73.78" y2="0.5"/><line class="cls-5" x1="69.17" y1="-68.25" x2="69.17" y2="0.5"/><line class="cls-6" x1="64.55" y1="-65" x2="64.55" y2="0.5"/><line class="cls-7" x1="59.94" y1="-68.25" x2="59.94" y2="0.5"/><line class="cls-8" x1="55.33" y1="-65" x2="55.33" y2="0.5"/><line class="cls-9" x1="50.72" y1="-68.25" x2="50.72" y2="0.5"/><line class="cls-10" x1="46.11" y1="-65" x2="46.11" y2="0.5"/><line class="cls-2" y1="-65" y2="0.5"/></pattern></defs><path class="cls-12" d="M6.28,26.24H186.35A107.76,107.76,0,0,1,294.11,134v38a0,0,0,0,1,0,0H6.28a0,0,0,0,1,0,0V26.24A0,0,0,0,1,6.28,26.24Z"/><path class="cls-13" d="M306.4,76.17h-.48c-6.31,0-12.07,0-17.33,0-24.46-.16-37.9-1.41-45.13-8.64S235,46.88,234.83,22.41c0-5.25,0-11,0-17.32V4.61a.63.63,0,0,0-1.26,0v.48c0,6.31,0,12.07,0,17.32-.16,24.47-1.4,37.91-8.63,45.13S204.28,76,179.81,76.18c-5.26,0-11,0-17.33,0H162a.64.64,0,0,0-.63.64.63.63,0,0,0,.63.63h.48c6.31,0,12.07,0,17.33,0,24.46.16,37.9,1.4,45.13,8.63s8.47,20.66,8.63,45.13c0,5.26,0,11,0,17.32V149a.63.63,0,0,0,1.26,0v-.49c0-6.3,0-12.06,0-17.32.16-24.47,1.4-37.9,8.63-45.13s20.66-8.47,45.13-8.63c5.26,0,11,0,17.33,0h.48a.63.63,0,0,0,.63-.63A.64.64,0,0,0,306.4,76.17Z"/><rect class="cls-14" x="6.28" y="26.24" width="163.2" height="145.72"/><polyline class="cls-15" points="169.48 104.48 6.28 148.15 6.28 171.96 169.48 171.96 169.48 26.24 6.28 26.24 6.28 99.1 169.48 57.57"/></svg>