<svg id="圖層_1" data-name="圖層 1" xmlns="http://www.w3.org/2000/svg" xmlns:xlink="http://www.w3.org/1999/xlink" viewBox="0 0 164 295.91"><defs><style>.cls-1,.cls-10,.cls-11,.cls-12,.cls-20,.cls-21,.cls-23,.cls-3,.cls-4,.cls-5,.cls-6,.cls-7,.cls-8,.cls-9{fill:none;}.cls-2{fill:#251e1c;}.cls-10,.cls-11,.cls-12,.cls-15,.cls-16,.cls-19,.cls-20,.cls-21,.cls-22,.cls-3,.cls-4,.cls-5,.cls-6,.cls-7,.cls-8,.cls-9{stroke:#251e1c;}.cls-10,.cls-11,.cls-12,.cls-15,.cls-16,.cls-19,.cls-20,.cls-21,.cls-22,.cls-23,.cls-3,.cls-4,.cls-5,.cls-6,.cls-7,.cls-8,.cls-9{stroke-linecap:round;}.cls-3{stroke-width:3.5px;}.cls-10,.cls-11,.cls-12,.cls-3,.cls-4,.cls-5,.cls-6,.cls-7,.cls-8,.cls-9{stroke-dasharray:0 6.5;}.cls-4{stroke-width:3.25px;}.cls-15,.cls-16,.cls-5{stroke-width:3px;}.cls-6{stroke-width:2.75px;}.cls-7{stroke-width:2.5px;}.cls-8{stroke-width:2.25px;}.cls-21,.cls-9{stroke-width:2px;}.cls-10{stroke-width:1.75px;}.cls-11{stroke-width:1.5px;}.cls-12{stroke-width:1.25px;}.cls-13,.cls-19,.cls-22{fill:#fff;}.cls-14{fill:url(#_10_dpi_40_);}.cls-15,.cls-16,.cls-19,.cls-20,.cls-21,.cls-22,.cls-23{stroke-linejoin:round;}.cls-15{fill:url(#_10_dpi_40_3);}.cls-16{fill:url(#_10_dpi_40_5);}.cls-17{fill:url(#_10_dpi_90_);}.cls-18{fill:url(#起伏的細點);}.cls-19,.cls-20{stroke-width:2.74px;}.cls-22,.cls-23{stroke-width:2.74px;}.cls-23{stroke:#fff;}</style><pattern id="_10_dpi_40_" data-name="10 dpi 40%" width="28.8" height="28.8" patternTransform="translate(-28.75 -8.63)" patternUnits="userSpaceOnUse" viewBox="0 0 28.8 28.8"><rect class="cls-1" width="28.8" height="28.8"/><path class="cls-2" d="M28.8,31.68a2.88,2.88,0,1,0-2.88-2.88A2.88,2.88,0,0,0,28.8,31.68Z"/><path class="cls-2" d="M14.4,31.68a2.88,2.88,0,1,0-2.88-2.88A2.88,2.88,0,0,0,14.4,31.68Z"/><path class="cls-2" d="M28.8,17.28a2.88,2.88,0,1,0-2.88-2.88A2.88,2.88,0,0,0,28.8,17.28Z"/><path class="cls-2" d="M14.4,17.28a2.88,2.88,0,1,0-2.88-2.88A2.88,2.88,0,0,0,14.4,17.28Z"/><path class="cls-2" d="M7.2,24.48A2.88,2.88,0,1,0,4.32,21.6,2.88,2.88,0,0,0,7.2,24.48Z"/><path class="cls-2" d="M21.6,24.48a2.88,2.88,0,1,0-2.88-2.88A2.88,2.88,0,0,0,21.6,24.48Z"/><path class="cls-2" d="M7.2,10.08A2.88,2.88,0,1,0,4.32,7.2,2.88,2.88,0,0,0,7.2,10.08Z"/><path class="cls-2" d="M21.6,10.08A2.88,2.88,0,1,0,18.72,7.2,2.88,2.88,0,0,0,21.6,10.08Z"/><path class="cls-2" d="M0,31.68A2.88,2.88,0,0,0,2.88,28.8,2.88,2.88,0,0,0,0,25.92a2.88,2.88,0,0,0,0,5.76Z"/><path class="cls-2" d="M0,17.28A2.88,2.88,0,0,0,2.88,14.4,2.88,2.88,0,0,0,0,11.52a2.88,2.88,0,0,0,0,5.76Z"/><path class="cls-2" d="M28.8,2.88A2.88,2.88,0,0,0,31.68,0a2.88,2.88,0,0,0-5.76,0A2.88,2.88,0,0,0,28.8,2.88Z"/><path class="cls-2" d="M14.4,2.88A2.88,2.88,0,0,0,17.28,0a2.88,2.88,0,0,0-5.76,0A2.88,2.88,0,0,0,14.4,2.88Z"/><path class="cls-2" d="M0,2.88A2.88,2.88,0,0,0,2.88,0,2.88,2.88,0,0,0,0-2.88,2.88,2.88,0,0,0-2.88,0,2.88,2.88,0,0,0,0,2.88Z"/></pattern><pattern id="_10_dpi_40_3" data-name="10 dpi 40%" width="28.8" height="28.8" patternTransform="translate(-28.29 -3.54)" patternUnits="userSpaceOnUse" viewBox="0 0 28.8 28.8"><rect class="cls-1" width="28.8" height="28.8"/><path class="cls-2" d="M28.8,31.68a2.88,2.88,0,1,0-2.88-2.88A2.88,2.88,0,0,0,28.8,31.68Z"/><path class="cls-2" d="M14.4,31.68a2.88,2.88,0,1,0-2.88-2.88A2.88,2.88,0,0,0,14.4,31.68Z"/><path class="cls-2" d="M28.8,17.28a2.88,2.88,0,1,0-2.88-2.88A2.88,2.88,0,0,0,28.8,17.28Z"/><path class="cls-2" d="M14.4,17.28a2.88,2.88,0,1,0-2.88-2.88A2.88,2.88,0,0,0,14.4,17.28Z"/><path class="cls-2" d="M7.2,24.48A2.88,2.88,0,1,0,4.32,21.6,2.88,2.88,0,0,0,7.2,24.48Z"/><path class="cls-2" d="M21.6,24.48a2.88,2.88,0,1,0-2.88-2.88A2.88,2.88,0,0,0,21.6,24.48Z"/><path class="cls-2" d="M7.2,10.08A2.88,2.88,0,1,0,4.32,7.2,2.88,2.88,0,0,0,7.2,10.08Z"/><path class="cls-2" d="M21.6,10.08A2.88,2.88,0,1,0,18.72,7.2,2.88,2.88,0,0,0,21.6,10.08Z"/><path class="cls-2" d="M0,31.68A2.88,2.88,0,0,0,2.88,28.8,2.88,2.88,0,0,0,0,25.92a2.88,2.88,0,0,0,0,5.76Z"/><path class="cls-2" d="M0,17.28A2.88,2.88,0,0,0,2.88,14.4,2.88,2.88,0,0,0,0,11.52a2.88,2.88,0,0,0,0,5.76Z"/><path class="cls-2" d="M28.8,2.88A2.88,2.88,0,0,0,31.68,0a2.88,2.88,0,0,0-5.76,0A2.88,2.88,0,0,0,28.8,2.88Z"/><path class="cls-2" d="M14.4,2.88A2.88,2.88,0,0,0,17.28,0a2.88,2.88,0,0,0-5.76,0A2.88,2.88,0,0,0,14.4,2.88Z"/><path class="cls-2" d="M0,2.88A2.88,2.88,0,0,0,2.88,0,2.88,2.88,0,0,0,0-2.88,2.88,2.88,0,0,0-2.88,0,2.88,2.88,0,0,0,0,2.88Z"/></pattern><pattern id="_10_dpi_40_5" data-name="10 dpi 40%" width="28.8" height="28.8" patternTransform="translate(-28.29 1.94)" patternUnits="userSpaceOnUse" viewBox="0 0 28.8 28.8"><rect class="cls-1" width="28.8" height="28.8"/><path class="cls-2" d="M28.8,31.68a2.88,2.88,0,1,0-2.88-2.88A2.88,2.88,0,0,0,28.8,31.68Z"/><path class="cls-2" d="M14.4,31.68a2.88,2.88,0,1,0-2.88-2.88A2.88,2.88,0,0,0,14.4,31.68Z"/><path class="cls-2" d="M28.8,17.28a2.88,2.88,0,1,0-2.88-2.88A2.88,2.88,0,0,0,28.8,17.28Z"/><path class="cls-2" d="M14.4,17.28a2.88,2.88,0,1,0-2.88-2.88A2.88,2.88,0,0,0,14.4,17.28Z"/><path class="cls-2" d="M7.2,24.48A2.88,2.88,0,1,0,4.32,21.6,2.88,2.88,0,0,0,7.2,24.48Z"/><path class="cls-2" d="M21.6,24.48a2.88,2.88,0,1,0-2.88-2.88A2.88,2.88,0,0,0,21.6,24.48Z"/><path class="cls-2" d="M7.2,10.08A2.88,2.88,0,1,0,4.32,7.2,2.88,2.88,0,0,0,7.2,10.08Z"/><path class="cls-2" d="M21.6,10.08A2.88,2.88,0,1,0,18.72,7.2,2.88,2.88,0,0,0,21.6,10.08Z"/><path class="cls-2" d="M0,31.68A2.88,2.88,0,0,0,2.88,28.8,2.88,2.88,0,0,0,0,25.92a2.88,2.88,0,0,0,0,5.76Z"/><path class="cls-2" d="M0,17.28A2.88,2.88,0,0,0,2.88,14.4,2.88,2.88,0,0,0,0,11.52a2.88,2.88,0,0,0,0,5.76Z"/><path class="cls-2" d="M28.8,2.88A2.88,2.88,0,0,0,31.68,0a2.88,2.88,0,0,0-5.76,0A2.88,2.88,0,0,0,28.8,2.88Z"/><path class="cls-2" d="M14.4,2.88A2.88,2.88,0,0,0,17.28,0a2.88,2.88,0,0,0-5.76,0A2.88,2.88,0,0,0,14.4,2.88Z"/><path class="cls-2" d="M0,2.88A2.88,2.88,0,0,0,2.88,0,2.88,2.88,0,0,0,0-2.88,2.88,2.88,0,0,0-2.88,0,2.88,2.88,0,0,0,0,2.88Z"/></pattern><pattern id="_10_dpi_90_" data-name="10 dpi 90%" width="28.8" height="28.8" patternTransform="translate(-28.29 -3.54)" patternUnits="userSpaceOnUse" viewBox="0 0 28.8 28.8"><rect class="cls-1" width="28.8" height="28.8"/><path class="cls-2" d="M28.8,35.28a6.48,6.48,0,1,0-6.48-6.48A6.48,6.48,0,0,0,28.8,35.28Z"/><path class="cls-2" d="M14.4,35.28A6.48,6.48,0,1,0,7.92,28.8,6.48,6.48,0,0,0,14.4,35.28Z"/><path class="cls-2" d="M28.8,20.88a6.48,6.48,0,1,0-6.48-6.48A6.48,6.48,0,0,0,28.8,20.88Z"/><path class="cls-2" d="M14.4,20.88A6.48,6.48,0,1,0,7.92,14.4,6.48,6.48,0,0,0,14.4,20.88Z"/><path class="cls-2" d="M7.2,28.08A6.48,6.48,0,1,0,.72,21.6,6.48,6.48,0,0,0,7.2,28.08Z"/><path class="cls-2" d="M21.6,28.08a6.48,6.48,0,1,0-6.48-6.48A6.48,6.48,0,0,0,21.6,28.08Z"/><path class="cls-2" d="M7.2,13.68A6.48,6.48,0,1,0,.72,7.2,6.48,6.48,0,0,0,7.2,13.68Z"/><path class="cls-2" d="M21.6,13.68A6.48,6.48,0,1,0,15.12,7.2,6.48,6.48,0,0,0,21.6,13.68Z"/><path class="cls-2" d="M0,35.28a6.48,6.48,0,1,0,0-13A6.48,6.48,0,0,0-6.48,28.8,6.48,6.48,0,0,0,0,35.28Z"/><path class="cls-2" d="M0,20.88a6.48,6.48,0,0,0,0-13A6.48,6.48,0,0,0-6.48,14.4,6.48,6.48,0,0,0,0,20.88Z"/><path class="cls-2" d="M28.8,6.48A6.48,6.48,0,0,0,35.28,0,6.48,6.48,0,0,0,28.8-6.48,6.48,6.48,0,0,0,22.32,0,6.48,6.48,0,0,0,28.8,6.48Z"/><path class="cls-2" d="M14.4,6.48A6.48,6.48,0,0,0,20.88,0,6.48,6.48,0,0,0,14.4-6.48,6.48,6.48,0,0,0,7.92,0,6.48,6.48,0,0,0,14.4,6.48Z"/><circle class="cls-2" r="6.48" transform="translate(0 0) rotate(-85.27)"/></pattern><pattern id="起伏的細點" data-name="起伏的細點" width="83" height="65" patternTransform="translate(108.91 -1.95)" patternUnits="userSpaceOnUse" viewBox="0 0 83 65"><rect class="cls-1" width="83" height="65"/><line class="cls-3" x1="83" y1="65" x2="83" y2="130.5"/><line class="cls-3" y1="65" y2="130.5"/><line class="cls-4" x1="4.61" y1="61.75" x2="4.61" y2="130.5"/><line class="cls-5" x1="9.22" y1="65" x2="9.22" y2="130.5"/><line class="cls-6" x1="13.83" y1="61.75" x2="13.83" y2="130.5"/><line class="cls-7" x1="18.45" y1="65" x2="18.45" y2="130.5"/><line class="cls-8" x1="23.06" y1="61.75" x2="23.06" y2="130.5"/><line class="cls-9" x1="27.67" y1="65" x2="27.67" y2="130.5"/><line class="cls-10" x1="32.28" y1="61.75" x2="32.28" y2="130.5"/><line class="cls-11" x1="36.89" y1="65" x2="36.89" y2="130.5"/><line class="cls-12" x1="41.5" y1="61.75" x2="41.5" y2="130.5"/><line class="cls-3" x1="83" y1="65" x2="83" y2="130.5"/><line class="cls-4" x1="78.39" y1="61.75" x2="78.39" y2="130.5"/><line class="cls-5" x1="73.78" y1="65" x2="73.78" y2="130.5"/><line class="cls-6" x1="69.17" y1="61.75" x2="69.17" y2="130.5"/><line class="cls-7" x1="64.55" y1="65" x2="64.55" y2="130.5"/><line class="cls-8" x1="59.94" y1="61.75" x2="59.94" y2="130.5"/><line class="cls-9" x1="55.33" y1="65" x2="55.33" y2="130.5"/><line class="cls-10" x1="50.72" y1="61.75" x2="50.72" y2="130.5"/><line class="cls-11" x1="46.11" y1="65" x2="46.11" y2="130.5"/><line class="cls-3" y1="65" y2="130.5"/><line class="cls-3" x1="83" x2="83" y2="65.5"/><line class="cls-3" y2="65.5"/><line class="cls-4" x1="4.61" y1="-3.25" x2="4.61" y2="65.5"/><line class="cls-5" x1="9.22" x2="9.22" y2="65.5"/><line class="cls-6" x1="13.83" y1="-3.25" x2="13.83" y2="65.5"/><line class="cls-7" x1="18.45" x2="18.45" y2="65.5"/><line class="cls-8" x1="23.06" y1="-3.25" x2="23.06" y2="65.5"/><line class="cls-9" x1="27.67" x2="27.67" y2="65.5"/><line class="cls-10" x1="32.28" y1="-3.25" x2="32.28" y2="65.5"/><line class="cls-11" x1="36.89" x2="36.89" y2="65.5"/><line class="cls-12" x1="41.5" y1="-3.25" x2="41.5" y2="65.5"/><line class="cls-3" x1="83" x2="83" y2="65.5"/><line class="cls-4" x1="78.39" y1="-3.25" x2="78.39" y2="65.5"/><line class="cls-5" x1="73.78" x2="73.78" y2="65.5"/><line class="cls-6" x1="69.17" y1="-3.25" x2="69.17" y2="65.5"/><line class="cls-7" x1="64.55" x2="64.55" y2="65.5"/><line class="cls-8" x1="59.94" y1="-3.25" x2="59.94" y2="65.5"/><line class="cls-9" x1="55.33" x2="55.33" y2="65.5"/><line class="cls-10" x1="50.72" y1="-3.25" x2="50.72" y2="65.5"/><line class="cls-11" x1="46.11" x2="46.11" y2="65.5"/><line class="cls-3" y2="65.5"/><line class="cls-3" x1="83" y1="-65" x2="83" y2="0.5"/><line class="cls-3" y1="-65" y2="0.5"/><line class="cls-4" x1="4.61" y1="-68.25" x2="4.61" y2="0.5"/><line class="cls-5" x1="9.22" y1="-65" x2="9.22" y2="0.5"/><line class="cls-6" x1="13.83" y1="-68.25" x2="13.83" y2="0.5"/><line class="cls-7" x1="18.45" y1="-65" x2="18.45" y2="0.5"/><line class="cls-8" x1="23.06" y1="-68.25" x2="23.06" y2="0.5"/><line class="cls-9" x1="27.67" y1="-65" x2="27.67" y2="0.5"/><line class="cls-10" x1="32.28" y1="-68.25" x2="32.28" y2="0.5"/><line class="cls-11" x1="36.89" y1="-65" x2="36.89" y2="0.5"/><line class="cls-12" x1="41.5" y1="-68.25" x2="41.5" y2="0.5"/><line class="cls-3" x1="83" y1="-65" x2="83" y2="0.5"/><line class="cls-4" x1="78.39" y1="-68.25" x2="78.39" y2="0.5"/><line class="cls-5" x1="73.78" y1="-65" x2="73.78" y2="0.5"/><line class="cls-6" x1="69.17" y1="-68.25" x2="69.17" y2="0.5"/><line class="cls-7" x1="64.55" y1="-65" x2="64.55" y2="0.5"/><line class="cls-8" x1="59.94" y1="-68.25" x2="59.94" y2="0.5"/><line class="cls-9" x1="55.33" y1="-65" x2="55.33" y2="0.5"/><line class="cls-10" x1="50.72" y1="-68.25" x2="50.72" y2="0.5"/><line class="cls-11" x1="46.11" y1="-65" x2="46.11" y2="0.5"/><line class="cls-3" y1="-65" y2="0.5"/></pattern></defs><polygon class="cls-13" points="122.23 126.97 121.09 125.4 122.55 116.39 124.11 115.25 141.19 118 142.32 119.57 140.87 128.58 139.3 129.72 122.23 126.97"/><path class="cls-2" d="M123.9,116.6,141,119.35l-1.45,9-17.07-2.75,1.45-9m.43-2.7-3.13,2.27-1.46,9,2.27,3.14,17.08,2.75,3.13-2.27,1.45-9-2.26-3.14-17.08-2.75Z"/><path class="cls-13" d="M124.42,111l-1.11-1-7.8-31.58.33-1.27,23.74-25,2.34,1.16-5,31.18-1,1.1a2.8,2.8,0,0,0-.8,5l.58,1.35-3.06,19-1.57,1.14Z"/><path class="cls-2" d="M140.57,53.07h0m0,0-5,31.18a4.17,4.17,0,0,0-1.2,7.47l-3.06,19-6.65-1.07-7.8-31.58,23.73-25m0-2.74h0v1.84l-2-1-23.73,25-.67,2.54,7.8,31.58,2.22,2,6.65,1.07,3.14-2.27,3.06-19-1.17-2.7a1.42,1.42,0,0,1-.62-1.42,1.44,1.44,0,0,1,1-1.15l1.95-2.2,5-31.18-2.7-1.33V50.33Zm0,5.48Z"/><path class="cls-13" d="M135.74,112.81l-1.13-1.57,3-19,1-1.1a2.8,2.8,0,0,0,.81-5l-.59-1.35,5-31.18,2.59-.36,14.69,31.17-.07,1.31-17.33,27.54-1.37.62Z"/><path class="cls-2" d="M145.24,53.82,159.93,85l-17.32,27.54L136,111.46l3-19A4.17,4.17,0,0,0,140.22,85l5-31.18m2.47-1.17-5.18.74-5,31.18,1.17,2.69a1.45,1.45,0,0,1,.62,1.43,1.43,1.43,0,0,1-1,1.15L136.31,92l-3.06,19,2.27,3.14,6.65,1.07,2.75-1.24,17.32-27.54.16-2.62L147.71,52.65Z"/><polygon class="cls-13" points="98.74 143.93 97.24 142.43 97.24 48.05 98.74 46.55 121.64 46.55 123.14 48.05 123.14 142.43 121.64 143.93 98.74 143.93"/><path class="cls-2" d="M121.64,48.05v94.38H98.74V48.05h22.9m0-3H98.74l-3,3v94.38l3,3h22.9l3-3V48.05l-3-3Z"/><path class="cls-13" d="M109.35,61.92A17.14,17.14,0,0,1,92.23,44.8c0-8.22,6.82-28.52,17.12-28.52s17.11,20.3,17.11,28.52A17.14,17.14,0,0,1,109.35,61.92Z"/><path class="cls-2" d="M109.35,17.78c8.62,0,15.61,18.4,15.61,27a15.62,15.62,0,1,1-31.23,0c0-8.62,7-27,15.62-27m0-3c-11.39,0-18.62,21.11-18.62,30a18.62,18.62,0,1,0,37.23,0c0-8.91-7.22-30-18.61-30Z"/><path class="cls-13" d="M109.35,61.92A17.14,17.14,0,0,1,92.23,44.8c0-8.22,6.82-28.52,17.12-28.52s17.11,20.3,17.11,28.52A17.14,17.14,0,0,1,109.35,61.92Z"/><path class="cls-2" d="M109.35,17.78c8.62,0,15.61,18.4,15.61,27a15.62,15.62,0,1,1-31.23,0c0-8.62,7-27,15.62-27m0-3c-11.39,0-18.62,21.11-18.62,30a18.62,18.62,0,1,0,37.23,0c0-8.91-7.22-30-18.61-30Z"/><path class="cls-14" d="M109.35,34.78a9.72,9.72,0,0,1-8.3-4.63A9.54,9.54,0,0,1,97.76,29a1.5,1.5,0,0,1-.6-2c3.53-6.92,7.86-10.72,12.19-10.72S118,20.08,121.53,27a1.5,1.5,0,0,1-.59,2,9.9,9.9,0,0,1-3.29,1.17A9.74,9.74,0,0,1,109.35,34.78Z"/><path class="cls-2" d="M109.35,17.78c4.21,0,8,4.4,10.84,9.9a8.24,8.24,0,0,1-3.48,1.07,8.25,8.25,0,0,1-14.73,0,8.24,8.24,0,0,1-3.48-1.07c2.81-5.5,6.63-9.9,10.85-9.9m0-3c-5,0-9.67,4-13.52,11.53a3,3,0,0,0,1.18,4,11,11,0,0,0,3.13,1.22,11.25,11.25,0,0,0,18.41,0,11,11,0,0,0,3.13-1.22,3,3,0,0,0,1.18-4c-3.85-7.54-8.52-11.53-13.51-11.53Z"/><line class="cls-15" x1="124.96" y1="93.68" x2="103.52" y2="93.68"/><line class="cls-16" x1="124.96" y1="99.15" x2="103.52" y2="99.15"/><path class="cls-17" d="M75.42,286.76a33.08,33.08,0,0,0,31.42-53.17,33.13,33.13,0,0,0,13.41-13.32,33.09,33.09,0,0,0,9.56-63.83,288.62,288.62,0,0,0-71,122.29A32.93,32.93,0,0,0,75.42,286.76Z"/><path class="cls-13" d="M58.75,175.89a54.2,54.2,0,1,1,50.48-73.84,54.21,54.21,0,0,1-50.48,73.84Z"/><path class="cls-2" d="M58.72,68.87a52.83,52.83,0,1,1-19.13,3.6,52.83,52.83,0,0,1,19.13-3.6m0-2.74h0a55.57,55.57,0,1,0,31,9.47,55.43,55.43,0,0,0-31-9.47Z"/><path class="cls-18" d="M108,102.55A52.83,52.83,0,0,0,65.48,69.3a49.82,49.82,0,0,1-47.25,86.28,52.81,52.81,0,0,0,89.73-53Z"/><rect class="cls-19" x="16.31" y="111.89" width="21.15" height="30.88" rx="10.57" transform="translate(-44.33 18.41) rotate(-21.26)"/><rect class="cls-19" x="36.02" y="104.22" width="21.15" height="30.88" rx="10.57" transform="translate(-40.21 25.04) rotate(-21.26)"/><path class="cls-2" d="M21.1,123.06A9.14,9.14,0,0,0,16,128.42l2.83,7.27a10.56,10.56,0,0,0,13.68,6h0a10.5,10.5,0,0,0,3.65-2.38,14.79,14.79,0,0,0-.82-8.09C32.75,124.66,26.39,121,21.1,123.06Z"/><path class="cls-2" d="M40.81,115.39a9.14,9.14,0,0,0-5.13,5.36L38.51,128a10.55,10.55,0,0,0,13.68,6h0a10.37,10.37,0,0,0,3.64-2.38,14.69,14.69,0,0,0-.81-8.09C52.46,117,46.1,113.33,40.81,115.39Z"/><path class="cls-20" d="M47.39,139.48a4.69,4.69,0,0,1-8.74,3.39"/><path class="cls-19" d="M104,186.85a8.56,8.56,0,0,1-3.58-1.49C70.89,164.34,78,134.31,78.31,133a8.66,8.66,0,0,1,16.83,4.13,31.42,31.42,0,0,0,.2,12c1.77,8.77,6.86,16.2,15.12,22.08A8.67,8.67,0,0,1,104,186.85Z"/><path class="cls-19" d="M107,175.33h14.87a0,0,0,0,1,0,0v19.82a0,0,0,0,1,0,0H92a0,0,0,0,1,0,0v-4.8A15,15,0,0,1,107,175.33Z" transform="translate(-106.46 170.46) rotate(-56.05)"/><path class="cls-19" d="M88.28,201.9C80,196,74.93,188.59,73.16,179.82a33.81,33.81,0,0,1-.66-6.14,52.32,52.32,0,0,1-17.29,1.71c.46,11,4.64,27.54,23,40.63a8.67,8.67,0,1,0,10-14.12Z"/><path class="cls-19" d="M84.81,205H99.68a0,0,0,0,1,0,0v19.82a0,0,0,0,1,0,0H69.78a0,0,0,0,1,0,0V220A15,15,0,0,1,84.81,205Z" transform="translate(-140.85 165.16) rotate(-56.05)"/><line class="cls-19" x1="96.76" y1="192.22" x2="104.3" y2="190.33"/><line class="cls-19" x1="75.51" y1="220.82" x2="83.06" y2="218.93"/><path class="cls-21" d="M119.72,40c.34,2.78.66,5.69-.4,8.27a9.65,9.65,0,0,1-3.43,4.16"/><circle class="cls-22" cx="58.18" cy="83.17" r="6.1"/><path class="cls-23" d="M68.58,271.46a30.44,30.44,0,0,0,28.28-1.3c3.21-1.92,6.17-4.63,7.32-8.19"/><path class="cls-23" d="M142.05,188.53a20.16,20.16,0,0,1-13.89,18.28"/></svg>