<svg id="圖層_1" data-name="圖層 1" xmlns="http://www.w3.org/2000/svg" xmlns:xlink="http://www.w3.org/1999/xlink" viewBox="0 0 164 295.91"><defs><style>.cls-1,.cls-4{fill:none;}.cls-2{fill:#251e1c;}.cls-3{fill:url(#_10_dpi_90_);}.cls-4{stroke:#fff;stroke-linecap:round;stroke-linejoin:round;stroke-width:2.74px;}</style><pattern id="_10_dpi_90_" data-name="10 dpi 90%" width="28.8" height="28.8" patternTransform="translate(-28.29 -3.54)" patternUnits="userSpaceOnUse" viewBox="0 0 28.8 28.8"><rect class="cls-1" width="28.8" height="28.8"/><path class="cls-2" d="M28.8,35.28a6.48,6.48,0,1,0-6.48-6.48A6.48,6.48,0,0,0,28.8,35.28Z"/><path class="cls-2" d="M14.4,35.28A6.48,6.48,0,1,0,7.92,28.8,6.48,6.48,0,0,0,14.4,35.28Z"/><path class="cls-2" d="M28.8,20.88a6.48,6.48,0,1,0-6.48-6.48A6.48,6.48,0,0,0,28.8,20.88Z"/><path class="cls-2" d="M14.4,20.88A6.48,6.48,0,1,0,7.92,14.4,6.48,6.48,0,0,0,14.4,20.88Z"/><path class="cls-2" d="M7.2,28.08A6.48,6.48,0,1,0,.72,21.6,6.48,6.48,0,0,0,7.2,28.08Z"/><path class="cls-2" d="M21.6,28.08a6.48,6.48,0,1,0-6.48-6.48A6.48,6.48,0,0,0,21.6,28.08Z"/><path class="cls-2" d="M7.2,13.68A6.48,6.48,0,1,0,.72,7.2,6.48,6.48,0,0,0,7.2,13.68Z"/><path class="cls-2" d="M21.6,13.68A6.48,6.48,0,1,0,15.12,7.2,6.48,6.48,0,0,0,21.6,13.68Z"/><path class="cls-2" d="M0,35.28a6.48,6.48,0,1,0,0-13A6.48,6.48,0,0,0-6.48,28.8,6.48,6.48,0,0,0,0,35.28Z"/><path class="cls-2" d="M0,20.88a6.48,6.48,0,0,0,0-13A6.48,6.48,0,0,0-6.48,14.4,6.48,6.48,0,0,0,0,20.88Z"/><path class="cls-2" d="M28.8,6.48A6.48,6.48,0,0,0,35.28,0,6.48,6.48,0,0,0,28.8-6.48,6.48,6.48,0,0,0,22.32,0,6.48,6.48,0,0,0,28.8,6.48Z"/><path class="cls-2" d="M14.4,6.48A6.48,6.48,0,0,0,20.88,0,6.48,6.48,0,0,0,14.4-6.48,6.48,6.48,0,0,0,7.92,0,6.48,6.48,0,0,0,14.4,6.48Z"/><circle class="cls-2" r="6.48" transform="translate(0 0) rotate(-85.27)"/></pattern></defs><path class="cls-3" d="M75.42,286.76a33.08,33.08,0,0,0,31.42-53.17,33.13,33.13,0,0,0,13.41-13.32,33.09,33.09,0,0,0,9.56-63.83,288.62,288.62,0,0,0-71,122.29A32.93,32.93,0,0,0,75.42,286.76Z"/><path class="cls-4" d="M68.58,271.46a30.44,30.44,0,0,0,28.28-1.3c3.21-1.92,6.17-4.63,7.32-8.19"/><path class="cls-4" d="M142.05,188.53a20.16,20.16,0,0,1-13.89,18.28"/></svg>