<svg id="圖層_1" data-name="圖層 1" xmlns="http://www.w3.org/2000/svg" xmlns:xlink="http://www.w3.org/1999/xlink" viewBox="0 0 436.3 275.6"><defs><style>.cls-1,.cls-10,.cls-11,.cls-15,.cls-2,.cls-3,.cls-4,.cls-5,.cls-6,.cls-7,.cls-8,.cls-9{fill:none;}.cls-10,.cls-11,.cls-12,.cls-14,.cls-15,.cls-17,.cls-18,.cls-19,.cls-2,.cls-20,.cls-22,.cls-25,.cls-3,.cls-4,.cls-5,.cls-6,.cls-7,.cls-8,.cls-9{stroke:#211815;}.cls-10,.cls-11,.cls-12,.cls-14,.cls-15,.cls-16,.cls-17,.cls-18,.cls-2,.cls-20,.cls-22,.cls-3,.cls-4,.cls-5,.cls-6,.cls-7,.cls-8,.cls-9{stroke-linecap:round;}.cls-2{stroke-width:3.5px;}.cls-10,.cls-11,.cls-2,.cls-3,.cls-4,.cls-5,.cls-6,.cls-7,.cls-8,.cls-9{stroke-dasharray:0 6.5;}.cls-3{stroke-width:3.25px;}.cls-19,.cls-25,.cls-4{stroke-width:3px;}.cls-5{stroke-width:2.75px;}.cls-6{stroke-width:2.5px;}.cls-7{stroke-width:2.25px;}.cls-15,.cls-8{stroke-width:2px;}.cls-9{stroke-width:1.75px;}.cls-10{stroke-width:1.5px;}.cls-11{stroke-width:1.25px;}.cls-12,.cls-14,.cls-17,.cls-18,.cls-20,.cls-22{fill:#fff;}.cls-12,.cls-14,.cls-15,.cls-16,.cls-17,.cls-18,.cls-20,.cls-22{stroke-linejoin:round;}.cls-12{stroke-width:2.19px;}.cls-13{fill:url(#起伏的細點);}.cls-14{stroke-width:1.6px;}.cls-16{fill:#1c1412;stroke:#1c1412;stroke-width:7.07px;}.cls-17{stroke-width:2.74px;}.cls-18{stroke-width:43.21px;}.cls-19,.cls-25{stroke-miterlimit:10;}.cls-19{fill:url(#未命名漸層_2);}.cls-20{stroke-width:2.4px;}.cls-21{fill:url(#起伏的細點-3);}.cls-22{stroke-width:2.46px;}.cls-23{fill:#211815;}.cls-24{fill:url(#未命名漸層_2-2);}.cls-25{fill:url(#未命名漸層_2-3);}</style><pattern id="起伏的細點" data-name="起伏的細點" width="83" height="65" patternTransform="translate(333.91 6.2) scale(0.8)" patternUnits="userSpaceOnUse" viewBox="0 0 83 65"><rect class="cls-1" width="83" height="65"/><line class="cls-2" x1="83" y1="65" x2="83" y2="130.5"/><line class="cls-2" y1="65" y2="130.5"/><line class="cls-3" x1="4.61" y1="61.75" x2="4.61" y2="130.5"/><line class="cls-4" x1="9.22" y1="65" x2="9.22" y2="130.5"/><line class="cls-5" x1="13.83" y1="61.75" x2="13.83" y2="130.5"/><line class="cls-6" x1="18.45" y1="65" x2="18.45" y2="130.5"/><line class="cls-7" x1="23.06" y1="61.75" x2="23.06" y2="130.5"/><line class="cls-8" x1="27.67" y1="65" x2="27.67" y2="130.5"/><line class="cls-9" x1="32.28" y1="61.75" x2="32.28" y2="130.5"/><line class="cls-10" x1="36.89" y1="65" x2="36.89" y2="130.5"/><line class="cls-11" x1="41.5" y1="61.75" x2="41.5" y2="130.5"/><line class="cls-2" x1="83" y1="65" x2="83" y2="130.5"/><line class="cls-3" x1="78.39" y1="61.75" x2="78.39" y2="130.5"/><line class="cls-4" x1="73.78" y1="65" x2="73.78" y2="130.5"/><line class="cls-5" x1="69.17" y1="61.75" x2="69.17" y2="130.5"/><line class="cls-6" x1="64.55" y1="65" x2="64.55" y2="130.5"/><line class="cls-7" x1="59.94" y1="61.75" x2="59.94" y2="130.5"/><line class="cls-8" x1="55.33" y1="65" x2="55.33" y2="130.5"/><line class="cls-9" x1="50.72" y1="61.75" x2="50.72" y2="130.5"/><line class="cls-10" x1="46.11" y1="65" x2="46.11" y2="130.5"/><line class="cls-2" y1="65" y2="130.5"/><line class="cls-2" x1="83" x2="83" y2="65.5"/><line class="cls-2" y2="65.5"/><line class="cls-3" x1="4.61" y1="-3.25" x2="4.61" y2="65.5"/><line class="cls-4" x1="9.22" x2="9.22" y2="65.5"/><line class="cls-5" x1="13.83" y1="-3.25" x2="13.83" y2="65.5"/><line class="cls-6" x1="18.45" x2="18.45" y2="65.5"/><line class="cls-7" x1="23.06" y1="-3.25" x2="23.06" y2="65.5"/><line class="cls-8" x1="27.67" x2="27.67" y2="65.5"/><line class="cls-9" x1="32.28" y1="-3.25" x2="32.28" y2="65.5"/><line class="cls-10" x1="36.89" x2="36.89" y2="65.5"/><line class="cls-11" x1="41.5" y1="-3.25" x2="41.5" y2="65.5"/><line class="cls-2" x1="83" x2="83" y2="65.5"/><line class="cls-3" x1="78.39" y1="-3.25" x2="78.39" y2="65.5"/><line class="cls-4" x1="73.78" x2="73.78" y2="65.5"/><line class="cls-5" x1="69.17" y1="-3.25" x2="69.17" y2="65.5"/><line class="cls-6" x1="64.55" x2="64.55" y2="65.5"/><line class="cls-7" x1="59.94" y1="-3.25" x2="59.94" y2="65.5"/><line class="cls-8" x1="55.33" x2="55.33" y2="65.5"/><line class="cls-9" x1="50.72" y1="-3.25" x2="50.72" y2="65.5"/><line class="cls-10" x1="46.11" x2="46.11" y2="65.5"/><line class="cls-2" y2="65.5"/><line class="cls-2" x1="83" y1="-65" x2="83" y2="0.5"/><line class="cls-2" y1="-65" y2="0.5"/><line class="cls-3" x1="4.61" y1="-68.25" x2="4.61" y2="0.5"/><line class="cls-4" x1="9.22" y1="-65" x2="9.22" y2="0.5"/><line class="cls-5" x1="13.83" y1="-68.25" x2="13.83" y2="0.5"/><line class="cls-6" x1="18.45" y1="-65" x2="18.45" y2="0.5"/><line class="cls-7" x1="23.06" y1="-68.25" x2="23.06" y2="0.5"/><line class="cls-8" x1="27.67" y1="-65" x2="27.67" y2="0.5"/><line class="cls-9" x1="32.28" y1="-68.25" x2="32.28" y2="0.5"/><line class="cls-10" x1="36.89" y1="-65" x2="36.89" y2="0.5"/><line class="cls-11" x1="41.5" y1="-68.25" x2="41.5" y2="0.5"/><line class="cls-2" x1="83" y1="-65" x2="83" y2="0.5"/><line class="cls-3" x1="78.39" y1="-68.25" x2="78.39" y2="0.5"/><line class="cls-4" x1="73.78" y1="-65" x2="73.78" y2="0.5"/><line class="cls-5" x1="69.17" y1="-68.25" x2="69.17" y2="0.5"/><line class="cls-6" x1="64.55" y1="-65" x2="64.55" y2="0.5"/><line class="cls-7" x1="59.94" y1="-68.25" x2="59.94" y2="0.5"/><line class="cls-8" x1="55.33" y1="-65" x2="55.33" y2="0.5"/><line class="cls-9" x1="50.72" y1="-68.25" x2="50.72" y2="0.5"/><line class="cls-10" x1="46.11" y1="-65" x2="46.11" y2="0.5"/><line class="cls-2" y1="-65" y2="0.5"/></pattern><linearGradient id="未命名漸層_2" x1="611.86" y1="49.2" x2="833.48" y2="239.8" gradientTransform="translate(-379.43)" gradientUnits="userSpaceOnUse"><stop offset="0" stop-color="#fff"/><stop offset="0.09" stop-color="#f9f9f9"/><stop offset="0.22" stop-color="#e8e8e8"/><stop offset="0.36" stop-color="#ccc"/><stop offset="0.52" stop-color="#a6a6a6"/><stop offset="0.68" stop-color="#747474"/><stop offset="0.85" stop-color="#383838"/><stop offset="1"/></linearGradient><pattern id="起伏的細點-3" data-name="起伏的細點" width="83" height="65" patternTransform="translate(136.26 -51.49)" patternUnits="userSpaceOnUse" viewBox="0 0 83 65"><rect class="cls-1" width="83" height="65"/><line class="cls-2" x1="83" y1="65" x2="83" y2="130.5"/><line class="cls-2" y1="65" y2="130.5"/><line class="cls-3" x1="4.61" y1="61.75" x2="4.61" y2="130.5"/><line class="cls-4" x1="9.22" y1="65" x2="9.22" y2="130.5"/><line class="cls-5" x1="13.83" y1="61.75" x2="13.83" y2="130.5"/><line class="cls-6" x1="18.45" y1="65" x2="18.45" y2="130.5"/><line class="cls-7" x1="23.06" y1="61.75" x2="23.06" y2="130.5"/><line class="cls-8" x1="27.67" y1="65" x2="27.67" y2="130.5"/><line class="cls-9" x1="32.28" y1="61.75" x2="32.28" y2="130.5"/><line class="cls-10" x1="36.89" y1="65" x2="36.89" y2="130.5"/><line class="cls-11" x1="41.5" y1="61.75" x2="41.5" y2="130.5"/><line class="cls-2" x1="83" y1="65" x2="83" y2="130.5"/><line class="cls-3" x1="78.39" y1="61.75" x2="78.39" y2="130.5"/><line class="cls-4" x1="73.78" y1="65" x2="73.78" y2="130.5"/><line class="cls-5" x1="69.17" y1="61.75" x2="69.17" y2="130.5"/><line class="cls-6" x1="64.55" y1="65" x2="64.55" y2="130.5"/><line class="cls-7" x1="59.94" y1="61.75" x2="59.94" y2="130.5"/><line class="cls-8" x1="55.33" y1="65" x2="55.33" y2="130.5"/><line class="cls-9" x1="50.72" y1="61.75" x2="50.72" y2="130.5"/><line class="cls-10" x1="46.11" y1="65" x2="46.11" y2="130.5"/><line class="cls-2" y1="65" y2="130.5"/><line class="cls-2" x1="83" x2="83" y2="65.5"/><line class="cls-2" y2="65.5"/><line class="cls-3" x1="4.61" y1="-3.25" x2="4.61" y2="65.5"/><line class="cls-4" x1="9.22" x2="9.22" y2="65.5"/><line class="cls-5" x1="13.83" y1="-3.25" x2="13.83" y2="65.5"/><line class="cls-6" x1="18.45" x2="18.45" y2="65.5"/><line class="cls-7" x1="23.06" y1="-3.25" x2="23.06" y2="65.5"/><line class="cls-8" x1="27.67" x2="27.67" y2="65.5"/><line class="cls-9" x1="32.28" y1="-3.25" x2="32.28" y2="65.5"/><line class="cls-10" x1="36.89" x2="36.89" y2="65.5"/><line class="cls-11" x1="41.5" y1="-3.25" x2="41.5" y2="65.5"/><line class="cls-2" x1="83" x2="83" y2="65.5"/><line class="cls-3" x1="78.39" y1="-3.25" x2="78.39" y2="65.5"/><line class="cls-4" x1="73.78" x2="73.78" y2="65.5"/><line class="cls-5" x1="69.17" y1="-3.25" x2="69.17" y2="65.5"/><line class="cls-6" x1="64.55" x2="64.55" y2="65.5"/><line class="cls-7" x1="59.94" y1="-3.25" x2="59.94" y2="65.5"/><line class="cls-8" x1="55.33" x2="55.33" y2="65.5"/><line class="cls-9" x1="50.72" y1="-3.25" x2="50.72" y2="65.5"/><line class="cls-10" x1="46.11" x2="46.11" y2="65.5"/><line class="cls-2" y2="65.5"/><line class="cls-2" x1="83" y1="-65" x2="83" y2="0.5"/><line class="cls-2" y1="-65" y2="0.5"/><line class="cls-3" x1="4.61" y1="-68.25" x2="4.61" y2="0.5"/><line class="cls-4" x1="9.22" y1="-65" x2="9.22" y2="0.5"/><line class="cls-5" x1="13.83" y1="-68.25" x2="13.83" y2="0.5"/><line class="cls-6" x1="18.45" y1="-65" x2="18.45" y2="0.5"/><line class="cls-7" x1="23.06" y1="-68.25" x2="23.06" y2="0.5"/><line class="cls-8" x1="27.67" y1="-65" x2="27.67" y2="0.5"/><line class="cls-9" x1="32.28" y1="-68.25" x2="32.28" y2="0.5"/><line class="cls-10" x1="36.89" y1="-65" x2="36.89" y2="0.5"/><line class="cls-11" x1="41.5" y1="-68.25" x2="41.5" y2="0.5"/><line class="cls-2" x1="83" y1="-65" x2="83" y2="0.5"/><line class="cls-3" x1="78.39" y1="-68.25" x2="78.39" y2="0.5"/><line class="cls-4" x1="73.78" y1="-65" x2="73.78" y2="0.5"/><line class="cls-5" x1="69.17" y1="-68.25" x2="69.17" y2="0.5"/><line class="cls-6" x1="64.55" y1="-65" x2="64.55" y2="0.5"/><line class="cls-7" x1="59.94" y1="-68.25" x2="59.94" y2="0.5"/><line class="cls-8" x1="55.33" y1="-65" x2="55.33" y2="0.5"/><line class="cls-9" x1="50.72" y1="-68.25" x2="50.72" y2="0.5"/><line class="cls-10" x1="46.11" y1="-65" x2="46.11" y2="0.5"/><line class="cls-2" y1="-65" y2="0.5"/></pattern><linearGradient id="未命名漸層_2-2" x1="198.28" y1="129.4" x2="306.15" y2="135.31" gradientTransform="matrix(1, 0, 0, 1, 0, 0)" xlink:href="#未命名漸層_2"/><linearGradient id="未命名漸層_2-3" x1="141.58" y1="186.54" x2="418.16" y2="186.54" gradientTransform="matrix(1, 0, 0, 1, 0, 0)" xlink:href="#未命名漸層_2"/></defs><path class="cls-12" d="M407.24,69.2l-14.9-4.31a9.27,9.27,0,0,0-11.49,6.33h0a9.28,9.28,0,0,0,4.94,11L368.56,141.7l17.75,5.14,17.24-59.52a9.28,9.28,0,0,0,3.69-18.12Zm-1.56,9.71a3.51,3.51,0,0,1-3.38,2.58,3.72,3.72,0,0,1-.93-.13l-11.05-3a3.5,3.5,0,0,1,1.86-6.75l11.05,3A3.5,3.5,0,0,1,405.68,78.91Z"/><path class="cls-12" d="M345,128h61a0,0,0,0,1,0,0v15.66a30.5,30.5,0,0,1-30.5,30.5h0a30.5,30.5,0,0,1-30.5-30.5V128A0,0,0,0,1,345,128Z" transform="translate(56.82 -98.46) rotate(16.15)"/><path class="cls-13" d="M369.06,173.21h0a30.5,30.5,0,0,1-20.82-37.77l4.36-15,58.59,17-4.36,15A30.49,30.49,0,0,1,369.06,173.21Z"/><line class="cls-14" x1="398.18" y1="88.34" x2="386.76" y2="126.99"/><path class="cls-15" d="M402.84,143.29S397.76,166,379.09,168"/><path class="cls-16" d="M436.3,275.6V165H180.41A178.21,178.21,0,0,0,16.22,273.91h0l15.72,1.69Z"/><path class="cls-17" d="M253.82,166.38H205.05a12.27,12.27,0,0,1-12.4-11.78,12,12,0,0,1,12-12.22h40.49a10,10,0,0,0,10-10v-23.3a12.26,12.26,0,0,1,11.77-12.4,12,12,0,0,1,12.23,12v32.37A25.3,25.3,0,0,1,253.82,166.38Z"/><rect class="cls-17" x="185.41" y="126.65" width="129.56" height="40.18"/><line class="cls-18" x1="177.2" y1="115.71" x2="177.2" y2="173.83"/><path class="cls-19" d="M317,50.58h0a49,49,0,0,1,49,49v67.22a0,0,0,0,1,0,0H268a0,0,0,0,1,0,0V99.61A49,49,0,0,1,317,50.58Z"/><rect class="cls-20" x="250.19" y="120.3" width="54.57" height="6.35"/><rect class="cls-20" x="202.28" y="70.03" width="66.76" height="56.62"/><path class="cls-21" d="M317,50.58h0a49.11,49.11,0,0,0-12.27,1.55,49,49,0,0,1,36.75,47.48v67.22h24.56V99.61A49,49,0,0,0,317,50.58Z"/><rect class="cls-22" x="283.53" y="76.72" width="18.99" height="27.72" rx="9.49"/><path class="cls-23" d="M289.57,85.13a8.2,8.2,0,0,0-6,2.81v7a9.49,9.49,0,0,0,9.49,9.5h0a9.37,9.37,0,0,0,3.82-.81,13.24,13.24,0,0,0,2-7C298.79,90.26,294.66,85.13,289.57,85.13Z"/><rect class="cls-22" x="302.51" y="76.72" width="18.99" height="27.72" rx="9.49"/><path class="cls-23" d="M308.55,85.13a8.23,8.23,0,0,0-6,2.81v7a9.5,9.5,0,0,0,9.5,9.5h0a9.37,9.37,0,0,0,3.82-.81,13.24,13.24,0,0,0,1.95-7C317.78,90.26,313.65,85.13,308.55,85.13Z"/><path class="cls-20" d="M235.88,126.65h65a34.74,34.74,0,0,1,34.74,34.74v5.44a0,0,0,0,1,0,0H235.88a0,0,0,0,1,0,0V126.65A0,0,0,0,1,235.88,126.65Z"/><path class="cls-24" d="M229.17,166.08v-70a28.7,28.7,0,0,1,27.17,28.63v41.35Z"/><path class="cls-23" d="M230.67,97.72a27.22,27.22,0,0,1,24.17,27v39.85H230.67V97.72m-3-3.16h0v73h30.17V124.73a30.17,30.17,0,0,0-30.17-30.17Z"/><line class="cls-18" x1="227.67" y1="115.71" x2="227.67" y2="173.83"/><path class="cls-25" d="M180.41,165a178.6,178.6,0,0,0-38.83,4.27A61.32,61.32,0,0,0,238.87,193a61.28,61.28,0,0,0,80.47,0,61.34,61.34,0,0,0,98.82-28Z"/><path class="cls-17" d="M327.34,170.38H278.57a12.27,12.27,0,0,1-12.4-11.78,12,12,0,0,1,12-12.22h40.49a10,10,0,0,0,10-10v-23.3a12.26,12.26,0,0,1,11.77-12.4,12,12,0,0,1,12.23,12v32.38A25.3,25.3,0,0,1,327.34,170.38Z"/><path class="cls-20" d="M269,110.06h8.46a10.23,10.23,0,0,1,10.23,10.23v0a0,0,0,0,1,0,0H269a0,0,0,0,1,0,0V110.06A0,0,0,0,1,269,110.06Z"/></svg>