<svg id="圖層_1" data-name="圖層 1" xmlns="http://www.w3.org/2000/svg" viewBox="0 0 80 80"><defs><style>.cls-1{fill:#251e1c;stroke:#fff;stroke-linecap:round;stroke-linejoin:round;stroke-width:3.38px;}</style></defs><path class="cls-1" d="M42.28,14.74l6.6-8.6A2.87,2.87,0,0,1,54,8l-.39,10.9a2.89,2.89,0,0,0,3.48,3l10.52-2.29a2.92,2.92,0,0,1,2.74,4.82l-7.21,8.09A3,3,0,0,0,64,37.07l9.5,5.1a2.93,2.93,0,0,1-.95,5.47l-10.65,1.5a2.93,2.93,0,0,0-2.28,4l4.05,10.1a2.9,2.9,0,0,1-4.2,3.58L50.32,61A2.87,2.87,0,0,0,46,62.59L42.74,73a2.86,2.86,0,0,1-5.48,0L34,62.59A2.87,2.87,0,0,0,29.68,61l-9.11,5.8a2.9,2.9,0,0,1-4.2-3.58l4.05-10.1a2.93,2.93,0,0,0-2.28-4L7.49,47.64a2.93,2.93,0,0,1-1-5.47l9.5-5.1a3,3,0,0,0,.79-4.55L9.62,24.43a2.92,2.92,0,0,1,2.74-4.82L22.88,21.9a2.89,2.89,0,0,0,3.48-3L26,8a2.87,2.87,0,0,1,5.15-1.9l6.6,8.6A2.86,2.86,0,0,0,42.28,14.74Z"/><polyline class="cls-1" points="48.76 36.06 40.16 29.16 31.57 36.06"/><line class="cls-1" x1="40.16" y1="50.02" x2="40.16" y2="29.95"/></svg>