<svg id="圖層_1" data-name="圖層 1" xmlns="http://www.w3.org/2000/svg" viewBox="0 0 400 135.05"><defs><style>.cls-1{fill:#fff;}.cls-2{fill:#251e1c;}</style></defs><polygon class="cls-1" points="99.2 25.1 66.44 8.67 5.93 40.53 22.5 78.15 7.79 100.74 30.13 128.15 54.79 120.52 75.67 130.95 123.78 120.53 149.32 128.68 197.04 116.31 239.79 131.57 286.01 112.41 309.36 127.1 376.1 125.45 394.07 99.44 380.74 73.49 394.07 50.16 375.05 8.67 333.56 20.77 278.23 3.48 246.28 17.89 193.43 6.86 162.77 20.5 122.63 12.13 99.2 25.1"/><circle class="cls-2" cx="198.14" cy="48.9" r="4.56"/><polygon class="cls-2" points="199.54 50.45 197.5 55.55 193.97 57.5 196.76 58.34 201.77 55.74 202.3 50.45 199.54 50.45"/><circle class="cls-2" cx="210.03" cy="48.9" r="4.56"/><polygon class="cls-2" points="211.44 50.45 209.39 55.55 205.87 57.5 208.65 58.34 213.66 55.74 214.19 50.45 211.44 50.45"/><path class="cls-2" d="M111.2,75.74h-4.15v3.45h-1.64V75.74h-4.12V74.15h4.12v-3h-3.54V69.59h8.69v1.55h-3.51v3h4.15Zm-7.3-4.35a9.07,9.07,0,0,1,.79,2.07l-1.54.47a8.81,8.81,0,0,0-.69-2.12Zm3.84,2.1a11.47,11.47,0,0,0,.81-2.12l1.68.42c-.38.8-.79,1.58-1.11,2.1Z"/><path class="cls-2" d="M119.68,71l-.24.75h4V79.2h-1.6v-.54H116v.54h-1.51V71.74h3.31c0-.24.08-.5.11-.75h-3.84V69.51h9.86V71ZM116,77.22h.85v-4H116Zm3.55-4h-1.31v.51h1.31Zm0,1.71h-1.31v.58h1.31Zm-1.31,2.33h1.31v-.55h-1.31Zm3.62-4h-.91v4h.91Z"/><path class="cls-2" d="M130.94,71.94h-4.29V70.72h1.65c-.16-.4-.4-.87-.6-1.25l1.2-.57a9.21,9.21,0,0,1,.78,1.47l-.65.35h1.91Zm-.44.33a1.81,1.81,0,0,0,1.08-1.84V69.27h3.86v2.29c0,.31,0,.45.14.45h.32a2,2,0,0,0,.56-.08c0,.39,0,.93.09,1.28a1.42,1.42,0,0,1-.64.1h-.49c-1.19,0-1.41-.54-1.41-1.77v-.82h-1a3.1,3.1,0,0,1-1.71,2.82,6.15,6.15,0,0,0-.79-.94v.83h-3.39V72.26h3.39Zm0,2.65h-3.42V73.75h3.42Zm5.92-1a7.06,7.06,0,0,1-1.61,3.15,8.5,8.5,0,0,0,2,.62,6.07,6.07,0,0,0-1,1.43,7.8,7.8,0,0,1-2.41-1,8.52,8.52,0,0,1-2.44,1,6.45,6.45,0,0,0-.57-1.15v.61h-2.06v.43h-1.31V75.27h3.37v2.46a7.42,7.42,0,0,0,1.74-.59A8.19,8.19,0,0,1,131,75.35l.87-.3h-1.09V73.59h4.47l.26,0Zm-7.28,2.57h-.72v.89h.72Zm3.22-1.45a4.81,4.81,0,0,0,1.11,1.24,4.85,4.85,0,0,0,1-1.24Z"/><path class="cls-2" d="M144.21,71.94H139.6V70.72h1.74c-.16-.4-.4-.87-.6-1.25L142,68.9a10,10,0,0,1,.77,1.47l-.64.35h2.13Zm-4.15,1.49V72.26h3.7v1.17Zm3.68,1.49h-3.68V73.75h3.68Zm0,3.71H141.4v.43h-1.32V75.27h3.7ZM141.4,76.5v.89h1V76.5ZM149.46,74h-1.89V79.2h-1.64V74h-1.77V72.47h1.77V69.14h1.64v3.33h1.89Z"/><path class="cls-2" d="M168.68,74.91c-.29.08-.58.17-.88.24v2.26c0,.68-.1,1.07-.47,1.3a2.77,2.77,0,0,1-1.57.31,5.8,5.8,0,0,0-.39-1.45h.83c.13,0,.17,0,.17-.18V75.55l-.87.23-.33-1.5c.35-.07.76-.15,1.2-.26V72.36h-1V70.92h1V69h1.43v2h.77v1.44h-.77v1.32l.69-.18Zm5.18,2.47v-.89h-.78V75.22h.78V74.5h-.78V73.18h2.22v6.06h-1.44v-.52h-3.41v.48H169V73.45a6,6,0,0,0,1.59-.65l.85.79V72.51h-2.61V71.14h2.61v-.52h-2.18V69.25h5.84v1.37h-2.2v.52h2.64v1.37h-2.64v4.87Zm-3.41,0h.94V73.9a9.48,9.48,0,0,1-.94.33v1h.7v1.27h-.7Z"/><path class="cls-2" d="M178.14,77.93h10v1h-10Zm10-4.15v.94h-10v-.94h4.08v-.26h-3.33v-.79h3.33v-.26h-3v-.79h3v-.26h-4v-.81h4v-.25h-2.9v-.78h2.9v-.64h1.6v.64H187v1h1v.81h-1v1h-3.15v.26h3.57v.79h-3.57v.26ZM187,75v2.68h-7.61V75Zm-6.08,1h1.43V75.7h-1.43Zm0,1h1.43v-.29h-1.43Zm4.46-1.25h-1.59V76h1.59Zm0,1h-1.59V77h1.59Zm-1.54-6h1.56v-.25h-1.56Zm0,1.07h1.56v-.26h-1.56Z"/><path class="cls-2" d="M195.1,71.94h-4.29V70.72h1.65a12,12,0,0,0-.61-1.25l1.21-.57a10.09,10.09,0,0,1,.78,1.47l-.65.35h1.91Zm-.44.33a1.81,1.81,0,0,0,1.08-1.84V69.27h3.86v2.29c0,.31,0,.45.14.45h.31a2,2,0,0,0,.56-.08c0,.39.06.93.1,1.28a1.44,1.44,0,0,1-.65.1h-.48c-1.19,0-1.41-.54-1.41-1.77v-.82h-1a3.1,3.1,0,0,1-1.71,2.82,6.15,6.15,0,0,0-.79-.94v.83h-3.39V72.26h3.39Zm0,2.65h-3.42V73.75h3.42Zm5.91-1a7,7,0,0,1-1.6,3.15,8.5,8.5,0,0,0,2.05.62,6.07,6.07,0,0,0-1,1.43,7.8,7.8,0,0,1-2.41-1,8.52,8.52,0,0,1-2.44,1,6.45,6.45,0,0,0-.57-1.15v.61h-2.06v.43h-1.32V75.27h3.38v2.46a7.42,7.42,0,0,0,1.74-.59,8.19,8.19,0,0,1-1.29-1.79l.87-.3H194.9V73.59h4.46l.27,0Zm-7.27,2.57h-.72v.89h.72Zm3.22-1.45a4.63,4.63,0,0,0,1.11,1.24,4.85,4.85,0,0,0,1-1.24Z"/><path class="cls-2" d="M208.37,71.94h-4.62V70.72h1.75c-.16-.4-.4-.87-.6-1.25l1.2-.57a9.21,9.21,0,0,1,.78,1.47l-.65.35h2.14Zm-4.15,1.49V72.26h3.7v1.17Zm3.67,1.49h-3.67V73.75h3.67Zm.05,3.71h-2.39v.43h-1.31V75.27h3.7Zm-2.39-2.13v.89h1V76.5ZM213.61,74h-1.89V79.2h-1.63V74h-1.77V72.47h1.77V69.14h1.63v3.33h1.89Z"/><path class="cls-2" d="M239.44,71.35s0,.48,0,.66c-.09,4.37-.16,6-.51,6.5a1.28,1.28,0,0,1-.92.62,6.14,6.14,0,0,1-1.35.07,4,4,0,0,0-.46-1.49c.43,0,.8,0,1,0a.38.38,0,0,0,.36-.19c.21-.28.29-1.54.35-4.78h-.66c-.15,2.91-.64,5.08-2.41,6.52a4.56,4.56,0,0,0-.69-.86c-1.64.17-3.32.32-4.58.42l-.17-1.29,2.11-.13V77h-1.81V75.89h1.81v-.28h-1.77V72.18h1.77v-.27h-2V70.79h2v-.25l-1.71.06a5,5,0,0,0-.34-1.1,33.07,33.07,0,0,0,4.67-.52l.66,1.16c-.56.12-1.2.2-1.87.28v.37h2v1.12h-2v.27h1.82v3.43h-1.82v.28h1.88V77a8.41,8.41,0,0,0,1-4.2h-.85V71.35h.88V69.16h1.5c0,.76,0,1.49,0,2.19ZM231,73.45h.54v-.33H231Zm.54,1.21v-.33H231v.33Zm1.41-1.54v.33h.53v-.33Zm.53,1.21h-.53v.33h.53Zm-.53,3,1.72-.13.16-.23h-1.88Z"/><path class="cls-2" d="M242.2,78.24a6.46,6.46,0,0,0,.82-2l1.35.53a9.2,9.2,0,0,1-.8,2.16Zm4.31-6.51c-.07-.15-.16-.31-.26-.49a17.73,17.73,0,0,0-3.59.49,11.63,11.63,0,0,0-.42-1.2,1.73,1.73,0,0,0,.59-.32A6.34,6.34,0,0,0,244.07,69l1.37.4a12.06,12.06,0,0,1-1,1l1.2-.11-.31-.42,1-.51a11.69,11.69,0,0,1,1.28,1.85,2.53,2.53,0,0,1,0-.29V69h1.43v.56h2.54v1.13h-2.54v.17c0,.31,0,.44.36.44h1.39a5.82,5.82,0,0,0,1.06-.09c0,.37.06.89.11,1.23a5,5,0,0,1-1.12.09h-1.51c-1.26,0-1.66-.4-1.71-1.39l-1.07.56H247v3.36c0,.53-.1.78-.45,1a3.25,3.25,0,0,1-1.34.16,4,4,0,0,0-.38-1,5.42,5.42,0,0,0,.68,0c.11,0,.16,0,.16-.13v-.33l-1.45.75-.24-.6a2.8,2.8,0,0,1-.68,1.35,6.26,6.26,0,0,0-1.11-.77,2.92,2.92,0,0,0,.65-2.16v-1.6Zm-1.44,2.33c-.25-.15-.6-.33-.92-.48,0,.25,0,.52-.05.79Zm-.92-1.27v.41l.34-.41Zm1.54,0h-1.17c.37.15.86.38,1.17.54Zm2.58,5c.47,0,.55-.16.61-1.09a4.5,4.5,0,0,0,1.31.5C250,78.65,249.63,79,248.4,79h-1.82c-1.6,0-2-.38-2-1.56v-1h1.52v1c0,.31.11.35.66.35Zm-2.58-3.93v-.39l-.38.52Zm1.86,1.84c.3.37.75.89,1,1.21l-1.14.76c-.2-.34-.62-.9-.92-1.3Zm1.77.51c-1.39,0-1.7-.38-1.7-1.57V72.57h1.43v.59h2.58v1.13h-2.58v.33c0,.33.08.36.46.36h1.07c.28,0,.36-.07.4-.44a4,4,0,0,0,1.25.47c-.16.94-.55,1.2-1.5,1.2Zm2.16,0c.26.61.61,1.44.76,2l-1.43.45a20.9,20.9,0,0,0-.68-2Z"/><path class="cls-2" d="M258.49,76.09c-.15-.25-.38-.55-.6-.85v4h-1.53V75.44a7.67,7.67,0,0,1-1.09.81,7.34,7.34,0,0,0-.57-1.64,7,7,0,0,0,2.59-2.48H255v-1.4h1.66a9.82,9.82,0,0,0-.67-1l1.2-.74a6.46,6.46,0,0,1,.94,1.37l-.57.38h.55l.27,0,.82.59a10.7,10.7,0,0,1-1.19,2.24c.44.37,1.2,1.08,1.4,1.28Zm5.29,1.71c.14,0,.17-.13.2-1.17a3.48,3.48,0,0,0,1.28.57c-.13,1.53-.5,1.94-1.31,1.94h-.61c-1.08,0-1.3-.44-1.3-1.68V75.55h-.43c-.13,1.76-.54,3-2.71,3.65a3.34,3.34,0,0,0-.77-1.13,2.33,2.33,0,0,0,2.09-2.52h-.55V69.36h4.86v6.19h-1v1.9c0,.31,0,.35.11.35Zm-2.69-6.74H263v-.47h-1.94Zm0,1.63H263v-.48h-1.94Zm0,1.63H263v-.48h-1.94Z"/><path class="cls-2" d="M276.15,77.91c.31,0,.38-.1.43-.71a4,4,0,0,0,1.28.46c-.15,1.11-.53,1.41-1.55,1.41h-1.45c-1.44,0-1.79-.35-1.79-1.45v-.29h-1c-.31,1.06-1.08,1.61-3.84,1.87A4.05,4.05,0,0,0,267.6,78c2.06-.08,2.68-.27,2.93-.69h-1V73.59h6.37v3.74H274.6v.28c0,.28.07.3.47.3Zm-6.86-3.81h-1.36V72.42h1.25L269,69.87h0a14.07,14.07,0,0,0,2-.91l.82.63a13.79,13.79,0,0,1-1.42.61v.17h1v.79h-.9l0,.24h.88v.79h-.83l0,.24h1.34c-.15-.15-.35-.33-.47-.43a6.93,6.93,0,0,0,.76-.41q-.24-.17-.48-.3l.56-.5c.17.09.35.2.54.32a2,2,0,0,0,.36-.43h.06l-.39-.32a4.39,4.39,0,0,1-.82.5,4.3,4.3,0,0,0-.61-.59,7.29,7.29,0,0,0,.74-.37l-.4-.23.55-.49a4.59,4.59,0,0,1,.48.26,2.31,2.31,0,0,0,.37-.4l.8.22a3.53,3.53,0,0,1-.51.6,3.24,3.24,0,0,1,.42.33l-.54.52.67.18a3.83,3.83,0,0,1-.51.65A5,5,0,0,1,274,72l-.49.46H275l0-.24h-.91v-.79h1l0-.24h-1v-.79h1v-.23H274v-.89h2.59c0,1-.09,2.27-.17,3.18h1.14V74.1h-1.43v-.73h-6.83Zm1.69.51h3.35v-.26H271Zm0,1h3.35v-.25H271Zm0,1h3.35v-.27H271Zm2.31-4.16c-.12-.1-.27-.23-.43-.35a3.74,3.74,0,0,1-.53.35Z"/><path class="cls-2" d="M284.72,71.94h-4.3V70.72h1.65c-.16-.4-.4-.87-.6-1.25l1.21-.57a11.17,11.17,0,0,1,.78,1.47l-.65.35h1.91Zm-.45.33a1.8,1.8,0,0,0,1.08-1.84V69.27h3.87v2.29c0,.31,0,.45.14.45h.31a2,2,0,0,0,.56-.08c0,.39,0,.93.1,1.28a1.44,1.44,0,0,1-.65.1h-.49c-1.18,0-1.41-.54-1.41-1.77v-.82h-1a3.11,3.11,0,0,1-1.72,2.82,5.62,5.62,0,0,0-.79-.94v.83h-3.38V72.26h3.38Zm0,2.65h-3.42V73.75h3.42Zm5.91-1a7.06,7.06,0,0,1-1.61,3.15,8.78,8.78,0,0,0,2.05.62,6.75,6.75,0,0,0-1,1.43,7.74,7.74,0,0,1-2.4-1,8.76,8.76,0,0,1-2.44,1,7.2,7.2,0,0,0-.57-1.15v.61h-2.07v.43h-1.31V75.27h3.38v2.46a7.33,7.33,0,0,0,1.73-.59,8.5,8.5,0,0,1-1.28-1.79l.86-.3h-1.09V73.59H289l.27,0ZM283,76.5h-.73v.89H283Zm3.21-1.45a4.81,4.81,0,0,0,1.11,1.24,4.85,4.85,0,0,0,1-1.24Z"/><path class="cls-2" d="M298,71.94h-4.62V70.72h1.75a12,12,0,0,0-.61-1.25l1.21-.57a10.09,10.09,0,0,1,.78,1.47l-.65.35H298Zm-4.16,1.49V72.26h3.7v1.17Zm3.68,1.49h-3.68V73.75h3.68Zm.05,3.71h-2.39v.43h-1.31V75.27h3.7Zm-2.39-2.13v.89h1.05V76.5ZM303.23,74h-1.89V79.2H299.7V74h-1.77V72.47h1.77V69.14h1.64v3.33h1.89Z"/><polygon class="cls-2" points="156.25 68.41 153.53 80.32 156.43 79.3 159.21 67.62 156.25 68.41"/><polygon class="cls-2" points="220.99 68.41 218.27 80.32 221.17 79.3 223.95 67.62 220.99 68.41"/></svg>