<svg id="圖層_1" data-name="圖層 1" xmlns="http://www.w3.org/2000/svg" viewBox="0 0 414 517.81"><defs><style>.cls-1{fill:#fff;}.cls-2,.cls-3{fill:#251e1c;}.cls-3{stroke:#251e1c;stroke-miterlimit:10;stroke-width:2px;}</style></defs><polygon class="cls-1" points="191.83 42.06 133.83 30.46 34.77 95.15 50.9 127.41 23.48 149.99 31.55 274.17 70.25 291.91 38 340.29 45.27 443.52 101.46 443.52 130.23 481.57 321.84 470.93 337.04 428.99 381.51 425.77 381.51 325.78 344.42 274.17 367 235.46 381.51 108.06 337.04 95.15 349.26 41.93 234.7 24.08 191.83 42.06"/><circle class="cls-2" cx="198.92" cy="112.34" r="6.2"/><polygon class="cls-2" points="200.83 114.45 198.05 121.39 193.26 124.04 197.04 125.18 203.86 121.65 204.57 114.45 200.83 114.45"/><circle class="cls-2" cx="215.08" cy="112.34" r="6.2"/><polygon class="cls-2" points="217 114.45 214.22 121.39 209.43 124.04 213.21 125.18 220.03 121.65 220.74 114.45 217 114.45"/><path class="cls-2" d="M194.34,272.36c-.68.2-1.35.4-2.05.57v5.22c0,1.58-.22,2.48-1.07,3a6.56,6.56,0,0,1-3.65.7,12.77,12.77,0,0,0-.9-3.35c.8,0,1.62,0,1.92,0s.4-.1.4-.42v-4.27l-2,.52-.75-3.47c.8-.15,1.75-.35,2.77-.6v-3.85h-2.35v-3.33H189v-4.55h3.3v4.55h1.8v3.33h-1.8v3.05l1.6-.4Zm12,5.72V276h-1.8v-2.95h1.8v-1.67h-1.8v-3.05h5.15v14h-3.35v-1.2h-7.9v1.1H195V269a13.77,13.77,0,0,0,3.68-1.5l2,1.83v-2.5h-6.05v-3.18h6.05v-1.2h-5.05v-3.17h13.53v3.17H204v1.2h6.1v3.18H204v11.27Zm-7.9,0h2.17V270a19.13,19.13,0,0,1-2.17.75v2.35h1.62v2.95h-1.62Z"/><path class="cls-2" d="M216.27,279.35h23.07v2.3H216.27Zm23.12-9.59v2.17H216.32v-2.17h9.44v-.6H218v-1.85h7.72v-.6h-6.87v-1.83h6.87v-.6h-9.34v-1.87h9.34v-.58H219V260h6.72v-1.48h3.7V260h7.3v2.4h2.4v1.87h-2.4v2.43h-7.3v.6h8.28v1.85h-8.28v.6Zm-2.6,2.8v6.19H219.17v-6.19Zm-14.08,2.3H226v-.65h-3.3Zm0,2.25H226v-.68h-3.3Zm10.33-2.9h-3.68v.65H233Zm0,2.22h-3.68v.68H233Zm-3.58-14h3.63v-.58h-3.63Zm0,2.47h3.63v-.6h-3.63Z"/><path class="cls-2" d="M255.56,265.48h-9.94v-2.82h3.82a27.64,27.64,0,0,0-1.4-2.9l2.8-1.33a23.34,23.34,0,0,1,1.8,3.43l-1.5.8h4.42Zm-1,.78A4.22,4.22,0,0,0,257,262v-2.67H266v5.3c0,.72.05,1.05.32,1.05H267a4.65,4.65,0,0,0,1.3-.2c.05.9.12,2.15.22,3a3.44,3.44,0,0,1-1.5.23h-1.12c-2.75,0-3.28-1.25-3.28-4.1v-1.9h-2.32a7.15,7.15,0,0,1-4,6.52,14.73,14.73,0,0,0-1.82-2.17v1.92h-7.85v-2.7h7.85Zm.07,6.12h-7.92v-2.7h7.92Zm13.7-2.27a16.19,16.19,0,0,1-3.72,7.29,19.73,19.73,0,0,0,4.75,1.43,15.2,15.2,0,0,0-2.23,3.32,18.37,18.37,0,0,1-5.57-2.25,20.08,20.08,0,0,1-5.65,2.33,15.27,15.27,0,0,0-1.33-2.65V281h-4.77v1h-3v-8.77h7.82v5.69a17.05,17.05,0,0,0,4-1.37,18.78,18.78,0,0,1-3-4.15l2-.7h-2.52v-3.37h10.35l.62-.13Zm-16.84,5.95h-1.68v2h1.68Zm7.44-3.38a10.81,10.81,0,0,0,2.58,2.88,11,11,0,0,0,2.22-2.88Z"/><path class="cls-2" d="M286.31,265.48H275.62v-2.82h4.05c-.38-.93-.93-2-1.4-2.9l2.8-1.33a25.45,25.45,0,0,1,1.8,3.43l-1.5.8h4.94Zm-9.62,3.45v-2.7h8.57v2.7Zm8.52,3.45h-8.52v-2.7h8.52Zm.1,8.6h-5.52v1h-3.05v-8.77h8.57Zm-5.52-4.92v2h2.42v-2Zm18.67-5.78h-4.37v12h-3.8v-12h-4.1v-3.57h4.1V259h3.8v7.7h4.37Z"/><path class="cls-2" d="M127,177.61h-9.62v8h-3.8v-8H104v-3.68h9.55v-7h-8.2v-3.6H125.5V167h-8.14v7H127Zm-16.92-10.08a20.32,20.32,0,0,1,1.82,4.8l-3.55,1.1a21.68,21.68,0,0,0-1.6-4.92Zm8.9,4.88a27.26,27.26,0,0,0,1.87-4.93l3.9,1a53.09,53.09,0,0,1-2.58,4.87Z"/><path class="cls-2" d="M146.63,166.61l-.55,1.75h9.25v17.27h-3.7v-1.25H138.06v1.25h-3.5V168.36h7.67c.08-.58.18-1.18.25-1.75h-8.9v-3.43h22.85v3.43Zm-8.57,14.44h2v-9.37h-2Zm8.22-9.37h-3v1.18h3Zm0,4h-3V177h3Zm-3,5.39h3v-1.27h-3Zm8.37-9.37h-2.1v9.37h2.1Z"/><path class="cls-2" d="M172.73,168.81h-9.95V166h3.83c-.38-.92-.93-2-1.4-2.9l2.8-1.32a24.79,24.79,0,0,1,1.8,3.42l-1.5.8h4.42Zm-1,.77a4.21,4.21,0,0,0,2.5-4.27v-2.68h8.94v5.3c0,.73,0,1,.33,1h.72a4.21,4.21,0,0,0,1.3-.2c.05.9.13,2.15.23,3a3.47,3.47,0,0,1-1.5.22H183.1c-2.75,0-3.27-1.25-3.27-4.1V166H177.5a7.14,7.14,0,0,1-4,6.53,14.76,14.76,0,0,0-1.82-2.18v1.93h-7.85v-2.7h7.85Zm.07,6.13h-7.92V173h7.92Zm13.7-2.28a16.28,16.28,0,0,1-3.73,7.3,19.73,19.73,0,0,0,4.75,1.42,15.11,15.11,0,0,0-2.22,3.33,18.16,18.16,0,0,1-5.57-2.25,20.37,20.37,0,0,1-5.65,2.32,15.63,15.63,0,0,0-1.33-2.65v1.4H167v1h-3.05v-8.77h7.82v5.7a17.51,17.51,0,0,0,4-1.37,19,19,0,0,1-3-4.15l2-.7h-2.52v-3.38H182.6l.63-.12Zm-16.85,5.95H167v2.05h1.67Zm7.45-3.37a10.77,10.77,0,0,0,2.58,2.87,11,11,0,0,0,2.22-2.87Z"/><path class="cls-2" d="M203.48,168.81h-10.7V166h4.05a29.71,29.71,0,0,0-1.4-2.9l2.8-1.32a22.78,22.78,0,0,1,1.8,3.42l-1.5.8h4.95Zm-9.62,3.45v-2.7h8.57v2.7Zm8.52,3.45h-8.52V173h8.52Zm.1,8.59H197v1h-3.05v-8.77h8.57ZM197,179.38v2.05h2.42v-2.05Zm18.67-5.77h-4.38v12h-3.79v-12h-4.1V170h4.1v-7.7h3.79V170h4.38Z"/><path class="cls-2" d="M134.52,371.85s0,1.12,0,1.55c-.2,10.12-.37,13.87-1.17,15a3,3,0,0,1-2.13,1.45A14.41,14.41,0,0,1,128,390a8.87,8.87,0,0,0-1-3.45,22.86,22.86,0,0,0,2.35.1.9.9,0,0,0,.85-.45c.48-.65.68-3.57.8-11.07h-1.52c-.35,6.75-1.48,11.77-5.58,15.1a10.29,10.29,0,0,0-1.6-2c-3.79.38-7.69.73-10.62,1l-.4-3,4.9-.3v-1.08H112v-2.52h4.2v-.65h-4.1v-8h4.1v-.62h-4.7v-2.58h4.7V370c-1.35.08-2.7.13-4,.15a10.54,10.54,0,0,0-.78-2.55,74.86,74.86,0,0,0,10.82-1.2l1.53,2.68c-1.3.27-2.78.47-4.33.65v.87H124v2.58h-4.53v.62h4.2v8h-4.2v.65h4.35v2.52c1.58-2.5,2.08-5.7,2.25-9.72h-2v-3.32h2.05v-5.08h3.47c0,1.78,0,3.48,0,5.08Zm-19.6,4.87h1.25V376h-1.25Zm1.25,2.8v-.75h-1.25v.75Zm3.27-3.55v.75h1.23V376Zm1.23,2.8h-1.23v.75h1.23Zm-1.23,7,4-.3c.12-.17.25-.35.37-.55h-4.35Z"/><path class="cls-2" d="M140.92,387.82a15.1,15.1,0,0,0,1.9-4.6l3.13,1.22a21,21,0,0,1-1.85,5Zm10-15.07a9.94,9.94,0,0,0-.6-1.15c-6.54.67-7.57.85-8.29,1.15-.18-.63-.65-2-1-2.8a3.47,3.47,0,0,0,1.35-.73,14.22,14.22,0,0,0,2.88-2.92l3.17.92a25.87,25.87,0,0,1-2.35,2.33l2.77-.25-.72-1,2.42-1.2a28.1,28.1,0,0,1,3,4.3c0-.2,0-.42,0-.67v-4.28h3.32v1.3h5.88v2.63h-5.88v.4c0,.72.1,1,.83,1h3.22a12.33,12.33,0,0,0,2.45-.22c.05.87.15,2.07.28,2.85a11.23,11.23,0,0,1-2.6.22h-3.5c-2.93,0-3.85-.92-4-3.22l-2.47,1.3h1.07v7.77c0,1.22-.25,1.8-1.05,2.2a7.48,7.48,0,0,1-3.09.37,11,11,0,0,0-.88-2.3,12.73,12.73,0,0,0,1.57,0c.25,0,.36-.08.36-.3v-.75c-1.16.6-2.28,1.2-3.35,1.72l-.55-1.4a6.59,6.59,0,0,1-1.58,3.15,14.61,14.61,0,0,0-2.57-1.8c1.4-1.45,1.5-3.37,1.5-5v-3.7Zm-3.32,5.4c-.57-.35-1.4-.78-2.12-1.13,0,.57,0,1.2-.13,1.82C146,378.64,146.75,378.42,147.57,378.15Zm-2.12-2.95v.95l.77-.95Zm3.55,0h-2.71c.86.35,2,.87,2.71,1.25Zm6,11.57c1.08,0,1.28-.35,1.4-2.53a10.51,10.51,0,0,0,3.05,1.18c-.37,3.35-1.3,4.2-4.15,4.2h-4.22c-3.7,0-4.65-.88-4.65-3.6v-2.28h3.52V386c0,.72.25.8,1.53.8Zm-6-9.1v-.9l-.88,1.2Zm4.32,4.27c.7.85,1.72,2.05,2.25,2.8l-2.65,1.75c-.45-.77-1.43-2.07-2.13-3Zm4.1,1.18c-3.23,0-3.95-.88-3.95-3.65V374.7h3.32v1.35h6v2.62h-6v.77c0,.75.18.83,1.08.83h2.47c.65,0,.83-.18.93-1a9.21,9.21,0,0,0,2.9,1.1c-.38,2.18-1.28,2.78-3.48,2.78Zm5,.1c.6,1.4,1.42,3.32,1.77,4.5l-3.32,1a47.91,47.91,0,0,0-1.58-4.68Z"/><path class="cls-2" d="M178.67,382.84c-.35-.57-.88-1.27-1.4-2V390h-3.55v-8.68a18.51,18.51,0,0,1-2.52,1.88,17.09,17.09,0,0,0-1.3-3.8,16.57,16.57,0,0,0,6-5.75h-5.23v-3.25h3.85a25.1,25.1,0,0,0-1.55-2.35l2.78-1.7a14.75,14.75,0,0,1,2.17,3.18l-1.33.87h1.28l.63-.12,1.89,1.37a22.94,22.94,0,0,1-2.75,5.2c1,.85,2.78,2.5,3.25,2.95Zm12.25,4c.32,0,.4-.3.47-2.7a8.48,8.48,0,0,0,3,1.33c-.3,3.55-1.15,4.5-3,4.5h-1.43c-2.5,0-3-1-3-3.9v-4.43h-1c-.3,4.08-1.25,6.88-6.27,8.45a8.23,8.23,0,0,0-1.78-2.62c4.08-1.1,4.6-2.93,4.83-5.83h-1.28V367.25h11.28v14.34h-2.43V386c0,.73,0,.8.28.8Zm-6.23-15.59h4.5v-1.1h-4.5Zm0,3.77h4.5v-1.12h-4.5Zm0,3.77h4.5v-1.12h-4.5Z"/><path class="cls-2" d="M219.59,387.07c.73,0,.88-.25,1-1.65a9.23,9.23,0,0,0,2.95,1.05c-.35,2.57-1.22,3.27-3.57,3.27h-3.38c-3.32,0-4.15-.8-4.15-3.35v-.67h-2.25c-.7,2.45-2.5,3.72-8.89,4.32a8.87,8.87,0,0,0-1.53-2.72c4.78-.2,6.23-.63,6.8-1.6H204.2v-8.67H219v8.67h-3v.65c0,.65.18.7,1.1.7Zm-15.89-8.85h-3.15v-3.87h2.9l-.43-5.93,0,0a31.75,31.75,0,0,0,4.62-2.1l1.9,1.45a31.22,31.22,0,0,1-3.3,1.42l0,.4h2.22v1.83h-2.1l0,.55h2.05v1.82h-1.93l.05.58h3.1a11.74,11.74,0,0,0-1.1-1,13.66,13.66,0,0,0,1.78-1c-.38-.25-.75-.5-1.13-.7l1.3-1.15a13.69,13.69,0,0,1,1.25.72,4.86,4.86,0,0,0,.85-1l.13,0c-.25-.23-.55-.45-.9-.73a10.69,10.69,0,0,1-1.9,1.15,10.73,10.73,0,0,0-1.4-1.37,16.84,16.84,0,0,0,1.7-.85c-.33-.2-.63-.38-.93-.53l1.28-1.15c.35.18.75.38,1.12.6a4.58,4.58,0,0,0,.85-.92l1.85.52a8.32,8.32,0,0,1-1.17,1.38,8.65,8.65,0,0,1,1,.77l-1.25,1.2,1.55.43a8.23,8.23,0,0,1-1.2,1.5,10.63,10.63,0,0,1,1.2,1l-1.15,1.08h3.55l.08-.58h-2.1V372h2.22l.05-.55h-2.27v-1.83h2.35l0-.55h-2.7v-2h6c-.07,2.4-.22,5.25-.4,7.38h2.65v3.87h-3.32v-1.67H203.7Zm3.92,1.2h7.75v-.6h-7.75Zm0,2.25h7.75v-.6h-7.75Zm0,2.3h7.75v-.63h-7.75Zm5.35-9.62c-.28-.25-.63-.55-1-.83a12.62,12.62,0,0,1-1.23.83Z"/><path class="cls-2" d="M239.44,373.22H229.5V370.4h3.82a27.64,27.64,0,0,0-1.4-2.9l2.8-1.33a23.34,23.34,0,0,1,1.8,3.43l-1.5.8h4.42Zm-1,.78a4.22,4.22,0,0,0,2.5-4.28v-2.67h9v5.3c0,.72,0,1,.32,1h.73a4.65,4.65,0,0,0,1.3-.2c.05.9.12,2.15.22,3a3.44,3.44,0,0,1-1.5.23h-1.12c-2.75,0-3.28-1.25-3.28-4.1v-1.9h-2.32a7.15,7.15,0,0,1-4,6.52,14.73,14.73,0,0,0-1.82-2.17v1.92h-7.85V374h7.85Zm.07,6.12h-7.92v-2.7h7.92Zm13.7-2.28a16.17,16.17,0,0,1-3.72,7.3,19.73,19.73,0,0,0,4.75,1.43,15.2,15.2,0,0,0-2.23,3.32,18.37,18.37,0,0,1-5.57-2.25,20.08,20.08,0,0,1-5.65,2.33,15.27,15.27,0,0,0-1.33-2.65v1.4h-4.77v1h-3v-8.78h7.82v5.7a17.05,17.05,0,0,0,4-1.37,19,19,0,0,1-3-4.15l2-.7H239v-3.37h10.35l.62-.13Zm-16.84,6h-1.68v2h1.68Zm7.44-3.37a10.77,10.77,0,0,0,2.58,2.87,10.82,10.82,0,0,0,2.22-2.87Z"/><path class="cls-2" d="M270.19,373.22H259.5V370.4h4.05c-.38-.93-.93-2-1.4-2.9l2.8-1.33a25.45,25.45,0,0,1,1.8,3.43l-1.5.8h4.94Zm-9.62,3.45V374h8.57v2.7Zm8.52,3.45h-8.52v-2.7h8.52Zm.1,8.6h-5.52v1h-3.05v-8.78h8.57Zm-5.52-4.93v2h2.42v-2ZM282.34,378H278v12h-3.8V378h-4.1v-3.57h4.1v-7.7H278v7.7h4.37Z"/><polygon class="cls-3" points="233.49 246.25 171.66 197.06 180.88 197.06 233.49 246.25"/><polygon class="cls-3" points="164.01 354.69 258.87 293.27 174.79 354.69 164.01 354.69"/></svg>