<svg id="圖層_1" data-name="圖層 1" xmlns="http://www.w3.org/2000/svg" viewBox="0 0 128.15 128.15"><defs><style>.cls-1,.cls-3,.cls-4{fill:#fff;}.cls-2{fill:#251e1c;}.cls-3,.cls-4{stroke:#251e1c;stroke-linecap:round;}.cls-3{stroke-linejoin:bevel;stroke-width:2.74px;}.cls-4{stroke-linejoin:round;stroke-width:2.74px;}</style></defs><path class="cls-1" d="M13.12,123.91l-2.5-2.5V57.69a53.46,53.46,0,0,1,106.91,0v63.72l-2.5,2.5Z"/><path class="cls-2" d="M64.08,6.74a51,51,0,0,1,51,50.95v63.72H13.12V57.69a51,51,0,0,1,51-50.95h0m0-5a56,56,0,0,0-56,56v63.72l5,5H115l5-5V57.69A56,56,0,0,0,64.08,1.74Z"/><path class="cls-3" d="M72.17,61.83a9.33,9.33,0,1,1-18.65,0"/><rect class="cls-4" x="40.42" y="34.19" width="21.15" height="30.88" rx="10.57"/><path class="cls-2" d="M47.15,55.7a9.22,9.22,0,0,1-6.73-3.13v-7.8A10.58,10.58,0,0,1,51,34.19h0a10.58,10.58,0,0,1,4.25.9,14.77,14.77,0,0,1,2.18,7.84C57.43,50,52.83,55.7,47.15,55.7Z"/><rect class="cls-4" x="66.08" y="34.19" width="21.15" height="30.88" rx="10.57"/><path class="cls-2" d="M72.81,55.7a9.19,9.19,0,0,1-6.73-3.13v-7.8A10.58,10.58,0,0,1,76.65,34.19h0a10.62,10.62,0,0,1,4.26.9,14.85,14.85,0,0,1,2.17,7.84C83.08,50,78.48,55.7,72.81,55.7Z"/></svg>